<?xml version="1.0" encoding="UTF-8"?>
<svg version="1.1" xmlns="http://www.w3.org/2000/svg" width="512" height="512">
<path d="M0 0 C1.32073532 0.34082029 2.64180491 0.68034747 3.96318054 1.01867676 C7.43157609 1.9103686 10.89525534 2.81916297 14.3581543 3.73193359 C17.77063396 4.62838184 21.18719328 5.5089574 24.60351562 6.390625 C30.03798143 7.79492737 35.46942586 9.21037193 40.89916992 10.6328125 C46.52452017 12.10594808 52.15522434 13.55665465 57.7902832 14.9921875 C59.20620557 15.35382876 60.62211457 15.71552238 62.03800964 16.07727051 C64.06258926 16.59448029 66.08741085 17.11056857 68.11335182 17.62242126 C101.90901418 26.16278948 122.98725456 45.46138289 147.05078125 69.59765625 C148.87472971 71.4234726 150.69890117 73.24906621 152.52328491 75.07444763 C156.81014091 79.36471302 161.09476587 83.65719446 165.37828195 87.95079416 C170.26154209 92.84529587 175.14769829 97.73690221 180.03407979 102.62828743 C190.07148042 112.67609425 200.10530427 122.72746698 210.13671875 132.78125 C216.87557503 127.261933 222.91751235 121.09100613 229.03198242 114.90429688 C230.22508542 113.70107536 231.41846246 112.49812552 232.61209106 111.29542542 C235.17230245 108.71518458 237.73116279 106.13361394 240.28914452 103.55116272 C244.3416421 99.46110007 248.40077916 95.37767091 252.46150208 91.29577637 C253.14866419 90.60497687 253.8358263 89.91417737 254.5438115 89.20244455 C255.94842368 87.79042727 257.35305221 86.37842625 258.75769675 84.96644115 C268.20246906 75.47181938 277.64294682 65.97303927 287.06469727 56.45556641 C293.43228839 50.02338276 299.81059198 43.60203567 306.20129567 37.19281244 C309.57657335 33.80689704 312.9462384 30.41579959 316.30281639 27.01133728 C319.4622782 23.80696476 322.63574841 20.61714402 325.82010269 17.43751335 C326.97980865 16.2745849 328.13444513 15.10657298 329.28328514 13.93290901 C338.69682062 4.32539499 348.388341 -3.17571612 362.33032227 -3.51123047 C376.7110514 -3.63276193 387.38164992 0.23060039 397.98796082 10.24481201 C399.28486166 11.52120458 400.57396025 12.80556079 401.85620117 14.09667969 C402.56964188 14.80325714 403.28308258 15.50983459 404.0181427 16.23782349 C406.35049398 18.55202564 408.67174914 20.87698245 410.9921875 23.203125 C412.62368562 24.83005592 414.25555325 26.45661637 415.88777161 28.08282471 C419.2976587 31.48380418 422.7018466 34.89036544 426.10229492 38.30078125 C430.44455293 42.65453021 434.80246741 46.9922167 439.16503429 51.32560349 C442.53599115 54.67815113 445.89752061 58.04002968 449.25643349 61.4046402 C450.8588095 63.00716882 452.46426219 64.60662755 454.07292747 66.20284271 C456.32686881 68.44178597 458.56752546 70.69327404 460.80541992 72.94824219 C461.46166351 73.59481781 462.1179071 74.24139343 462.79403687 74.90756226 C473.1491928 85.42752778 477.65398256 96.47482086 477.55859375 111.04248047 C477.01997776 128.08329826 466.30469546 137.9130558 454.88916016 149.25585938 C453.64648168 150.49797292 452.40424498 151.74052859 451.16241455 152.98348999 C447.80783501 156.33864084 444.44714674 159.68761073 441.08528948 163.03546715 C437.56631584 166.54189641 434.05304526 170.05403059 430.53915405 173.56555176 C423.89224182 180.2062601 417.24025007 186.84185581 410.58639753 193.4756093 C403.00807494 201.0315389 395.43546404 208.59318181 387.86331677 216.15529919 C372.29411077 231.7036279 356.71778092 247.24480302 341.13671875 262.78125 C346.38537722 269.15720484 352.18254442 274.92734996 358.0480957 280.72680664 C359.14792155 281.81815113 360.247483 282.90976214 361.34680176 284.00161743 C363.7043506 286.3425217 366.06327459 288.68202828 368.42315102 291.02058601 C372.16497643 294.72959594 375.90068206 298.44472867 379.63505554 302.16123962 C380.58388586 303.10544025 380.58388586 303.10544025 381.55188447 304.06871563 C382.84489362 305.35541737 384.13789395 306.64212795 385.43088567 307.92884719 C394.11562351 316.57072887 402.80476706 325.20810247 411.50854492 333.83081055 C417.39287152 339.66042337 423.26806183 345.49908026 429.13322037 351.34797949 C432.22929407 354.43473944 435.32968425 357.51684995 438.44140053 360.58784676 C441.37363598 363.48181871 444.29359037 366.387662 447.20514679 369.30243301 C448.26609184 370.36044438 449.33123156 371.41427183 450.40119743 372.46315956 C467.43837959 389.1799123 477.32672721 408.56397236 477.57421875 432.65625 C477.43302089 454.80390021 469.3228566 473.02503476 454.05859375 488.94921875 C437.68124873 504.62901019 417.06062859 509.47430713 395.09765625 509.0859375 C384.46680672 508.68206535 375.36149866 505.61596311 365.82421875 501.03125 C365.20224609 500.73283203 364.58027344 500.43441406 363.93945312 500.12695312 C353.20232549 494.59433414 344.7718527 485.70261419 336.35302734 477.22460938 C335.20913998 476.08015654 334.06480941 474.93614654 332.92007446 473.7925415 C329.84189232 470.71492856 326.76987625 467.63122895 323.69900465 464.54632378 C320.47821595 461.31295487 317.25168772 458.08532328 314.02578735 454.85705566 C307.93054556 448.75562039 301.84041601 442.64910912 295.75214732 436.54071665 C288.81528134 429.58142498 281.87267334 422.62787353 274.92959857 415.67477703 C260.65894751 401.38327232 246.39545296 387.08464362 232.13671875 372.78125 C225.39786247 378.300567 219.35592515 384.47149387 213.24145508 390.65820312 C212.04835208 391.86142464 210.85497504 393.06437448 209.66134644 394.26707458 C207.10113505 396.84731542 204.54227471 399.42888606 201.98429298 402.01133728 C197.9317954 406.10139993 193.87265834 410.18482909 189.81193542 414.26672363 C189.12477331 414.95752313 188.4376112 415.64832263 187.729626 416.36005545 C186.32501382 417.77207273 184.92038529 419.18407375 183.51574075 420.59605885 C174.07096844 430.09068062 164.63049068 439.58946073 155.20874023 449.10693359 C148.84114911 455.53911724 142.46284552 461.96046433 136.07214183 468.36968756 C132.69686415 471.75560296 129.3271991 475.14670041 125.97062111 478.55116272 C122.8111593 481.75553524 119.63768909 484.94535598 116.45333481 488.12498665 C115.29362885 489.2879151 114.13899237 490.45592702 112.99015236 491.62959099 C103.57661688 501.23710501 93.8850965 508.73821612 79.94311523 509.07373047 C65.5623861 509.19526193 54.89178758 505.33189961 44.28547668 495.31768799 C42.98857584 494.04129542 41.69947725 492.75693921 40.41723633 491.46582031 C39.70379562 490.75924286 38.99035492 490.05266541 38.2552948 489.32467651 C35.92294352 487.01047436 33.60168836 484.68551755 31.28125 482.359375 C29.64975188 480.73244408 28.01788425 479.10588363 26.38566589 477.47967529 C22.9757788 474.07869582 19.5715909 470.67213456 16.17114258 467.26171875 C11.82888457 462.90796979 7.47097009 458.5702833 3.10840321 454.23689651 C-0.26255365 450.88434887 -3.62408311 447.52247032 -6.98299599 444.1578598 C-8.585372 442.55533118 -10.19082469 440.95587245 -11.79948997 439.35965729 C-14.05343131 437.12071403 -16.29408796 434.86922596 -18.53198242 432.61425781 C-19.18822601 431.96768219 -19.8444696 431.32110657 -20.52059937 430.65493774 C-28.8100879 422.23351617 -35.15416376 411.90568795 -35.33154297 399.88012695 C-35.3213916 399.08437256 -35.31124023 398.28861816 -35.30078125 397.46875 C-35.29320801 396.63496826 -35.28563477 395.80118652 -35.27783203 394.94213867 C-34.81717756 377.6406965 -24.21460563 367.83162371 -12.61572266 356.30664062 C-11.37304418 355.06452708 -10.13080748 353.82197141 -8.88897705 352.57901001 C-5.53439751 349.22385916 -2.17370924 345.87488927 1.18814802 342.52703285 C4.70712166 339.02060359 8.22039224 335.50846941 11.73428345 331.99694824 C18.38119568 325.3562399 25.03318743 318.72064419 31.68703997 312.0868907 C39.26536256 304.5309611 46.83797346 296.96931819 54.41012073 289.40720081 C69.97932673 273.8588721 85.55565658 258.31769698 101.13671875 242.78125 C96.67296854 237.42896032 91.94925559 232.47215774 86.99511719 227.57373047 C86.2007576 226.78404373 85.40639801 225.99435699 84.58796692 225.18074036 C82.87194324 223.4751731 81.1548273 221.77070422 79.43672943 220.06722641 C76.70837421 217.36102423 73.98411528 214.65076132 71.26104736 211.9392395 C63.52121414 204.23286686 55.7775022 196.53043002 48.02294922 188.83886719 C43.26941349 184.12385025 38.52406119 179.40072259 33.78296661 174.67319107 C31.9854228 172.88364357 30.1851183 171.09686426 28.38188934 169.3130455 C4.73268045 145.91391421 4.73268045 145.91391421 -2.61328125 131.59375 C-2.94714844 130.99240234 -3.28101562 130.39105469 -3.625 129.77148438 C-10.94998613 115.82636928 -14.41230879 99.58733277 -18.26171875 84.4140625 C-18.746223 82.51793249 -19.23089658 80.62184575 -19.71572876 78.72579956 C-20.72041334 74.78910986 -21.71957238 70.85106546 -22.71533203 66.91210938 C-23.98530979 61.89240575 -25.27468362 56.87790231 -26.56882286 51.86438179 C-27.5720816 47.96498358 -28.56226371 44.06234977 -29.54890823 40.15871811 C-30.01870777 38.30857647 -30.49308661 36.45959073 -30.97236252 34.61188126 C-37.1723906 10.6560364 -37.1723906 10.6560364 -33.17578125 2.21875 C-24.08631236 -7.36204153 -11.33970229 -3.02255893 0 0 Z M338.66627502 49.12471008 C337.19186561 50.59796648 335.71723841 52.07100494 334.24241298 53.54384488 C330.20120773 57.58088196 326.16311957 61.6210243 322.12554848 65.6616956 C317.76682425 70.0226838 313.40522186 74.38079181 309.04399109 78.73927307 C300.99985951 86.7792161 292.95800521 94.82143159 284.91733738 102.86483825 C277.49243513 110.29225717 270.06660275 117.7187446 262.63984489 125.14430809 C262.14700048 125.63707612 261.65415607 126.12984414 261.14637698 126.63754453 C259.1457698 128.63784037 257.1451591 130.63813268 255.14454258 132.63841917 C236.38837027 151.39153427 217.63511244 170.14756145 198.8831613 188.90489735 C182.21533013 205.57747836 165.54490955 222.24746615 148.87231445 238.9152832 C130.13999097 257.6422563 111.40927857 276.37083837 92.6811766 295.10203332 C90.686415 297.09711564 88.69164946 299.09219402 86.69688225 301.08727074 C86.2057201 301.57851196 85.71455796 302.06975318 85.20851211 302.5758805 C77.78258879 310.00294261 70.35542987 317.42876759 62.92767525 324.85399818 C54.48903226 333.28978792 46.05221461 341.72739849 37.61766887 350.1672853 C33.31100619 354.47658484 29.00353167 358.78506477 24.69390488 363.09140015 C20.7549415 367.02740053 16.81826359 370.96567134 12.88345622 374.90582635 C11.45387537 376.33653132 10.02343634 377.76637937 8.59208936 379.19531742 C6.65816124 381.1262383 4.72728867 383.06016208 2.79720402 384.99492359 C2.23097083 385.55881561 1.66473765 386.12270763 1.08134589 386.70368728 C-2.27504761 390.0765409 -3.70468428 391.63142198 -4.36328125 396.40625 C-4.31898229 400.19770059 -3.32361414 401.84968404 -0.76985168 404.60877991 C-0.13179407 405.30323275 0.50626354 405.99768559 1.16365623 406.71318245 C4.12352371 409.81557065 7.10475704 412.88880192 10.1418457 415.91577148 C11.1334243 416.90997856 11.1334243 416.90997856 12.14503479 417.92427063 C14.30253689 420.08612847 16.46362137 422.24436212 18.625 424.40234375 C20.13492694 425.91294505 21.64470546 427.42369471 23.15434265 428.93458557 C26.30382898 432.08553993 29.45510149 435.23469386 32.60766602 438.38256836 C36.6541896 442.42336568 40.69616764 446.46867557 44.73684406 450.51531887 C47.84645947 453.62853901 50.9584417 456.73938445 54.07115746 459.84950447 C55.56348315 461.34116217 57.05506385 462.83356558 58.54589272 464.32671928 C60.62104548 466.40440027 62.69935682 468.4788682 64.77856445 470.55249023 C65.39622681 471.17217682 66.01388916 471.7918634 66.65026855 472.43032837 C70.98410158 476.76197279 70.98410158 476.76197279 76.76171875 478.28125 C82.46243595 478.19892917 85.35755283 474.66943033 89.13671875 470.78125 C89.88953125 470.04003906 90.64234375 469.29882812 91.41796875 468.53515625 C93.34259539 466.6342486 95.24671803 464.71649009 97.13671875 462.78125 C95.59517065 459.06759306 93.33938939 456.80725134 90.453125 454.04296875 C89.52564453 453.13998047 88.59816406 452.23699219 87.64257812 451.30664062 C86.17403011 449.88755846 84.70250231 448.47188453 83.2253418 447.06176758 C71.68762425 436.01485229 71.68762425 436.01485229 70.76171875 427.21875 C71.30531955 422.23574271 72.88097229 419.18920815 76.19921875 415.46875 C80.34846774 413.08513888 84.3674159 412.24762171 89.13671875 412.78125 C97.35075417 415.73581095 102.70990694 421.89953211 108.63671875 428.03125 C109.65921228 429.07384328 110.68264285 430.11551845 111.70703125 431.15625 C114.19449012 433.68741887 116.66902495 436.23079041 119.13671875 438.78125 C122.7043616 437.26748919 124.97378162 435.17611871 127.68359375 432.4296875 C128.52792969 431.57890625 129.37226563 430.728125 130.2421875 429.8515625 C131.11488281 428.96210938 131.98757812 428.07265625 132.88671875 427.15625 C133.77488281 426.2590625 134.66304687 425.361875 135.578125 424.4375 C137.76888844 422.22317996 139.95484638 420.00432565 142.13671875 417.78125 C137.38233301 412.03622752 132.24281395 406.8321696 126.90625 401.62890625 C125.11593973 399.86584012 123.32624451 398.10214926 121.53710938 396.33789062 C118.73839495 393.58246416 115.93618154 390.83104618 113.12329102 388.09008789 C110.39352392 385.42703414 107.68004848 382.74824417 104.96875 380.06640625 C104.12810501 379.25470474 103.28746002 378.44300323 102.42134094 377.60670471 C97.44009388 372.64844569 93.26691444 368.11069504 93.08576965 360.69569397 C93.44371451 356.41957066 94.40092705 353.08306757 97.13671875 349.78125 C101.49016739 346.70198145 105.41321485 346.40921884 110.57421875 346.28515625 C118.374879 347.79534505 124.02182109 355.4108134 129.34765625 360.796875 C130.32513239 361.77808675 131.30305509 362.75885383 132.28140259 363.73919678 C134.8405447 366.30593221 137.39362022 368.87861877 139.94543457 371.45263672 C142.5563056 374.08405938 145.1729309 376.70974664 147.7890625 379.3359375 C152.91056316 384.47881207 158.02566176 389.62799399 163.13671875 394.78125 C166.66016519 393.1226312 168.93573753 391.21467692 171.68359375 388.4296875 C172.52792969 387.57890625 173.37226563 386.728125 174.2421875 385.8515625 C175.11488281 384.96210938 175.98757812 384.07265625 176.88671875 383.15625 C177.77488281 382.2590625 178.66304687 381.361875 179.578125 380.4375 C181.76888844 378.22317996 183.95484638 376.00432565 186.13671875 373.78125 C184.56689961 369.95370722 182.15175533 367.60927812 179.19921875 364.75390625 C178.21212208 363.78722935 177.22514663 362.82042865 176.23828125 361.85351562 C174.68706976 360.34577539 173.13346312 358.840607 171.57714844 357.33813477 C170.06964922 355.87908747 168.57161683 354.4108081 167.07421875 352.94140625 C166.17574219 352.07136963 165.27726563 351.20133301 164.3515625 350.30493164 C160.64702846 346.08383724 159.71063095 342.39169848 159.890625 336.76953125 C160.45584949 332.20287622 162.36447319 329.51488328 165.63671875 326.40625 C170.43377058 324.17904736 174.93297443 323.78727637 180.13671875 324.78125 C184.48648057 327.40054193 187.97356352 330.38088118 191.53515625 333.984375 C192.01497955 334.4670282 192.49480286 334.9496814 192.98916626 335.44696045 C194.50149931 336.97037479 196.0066779 338.50063455 197.51171875 340.03125 C198.54380327 341.07337993 199.57635129 342.11505105 200.609375 343.15625 C203.12386471 345.69263979 205.63199314 348.23521326 208.13671875 350.78125 C213.38846801 346.39682474 218.26894348 341.77282907 223.07421875 336.90625 C223.75806641 336.21789062 224.44191406 335.52953125 225.14648438 334.8203125 C226.81223339 333.14291489 228.47558095 331.46321209 230.13671875 329.78125 C228.66586383 326.36621945 226.76756003 324.18856923 224.11767578 321.59863281 C222.87596115 320.37651093 222.87596115 320.37651093 221.60916138 319.12969971 C220.71333344 318.25674255 219.81750549 317.3837854 218.89453125 316.484375 C217.48872807 315.09739384 216.0829368 313.71040036 214.67783928 312.32270432 C211.21849803 308.90912317 207.74865729 305.50628366 204.27294922 302.109375 C202.32239398 300.20223356 200.37742539 298.28969239 198.43795776 296.37127686 C196.61452012 294.56841725 194.78291654 292.77376899 192.94216919 290.98858643 C187.28240214 285.37467152 182.8018018 280.43683135 181.63671875 272.28125 C182.27126241 267.83944439 183.39686555 264.36973029 186.13671875 260.78125 C190.83055113 257.89273777 195.67790962 256.69340602 201.13671875 257.78125 C208.42952492 261.02168837 213.82844309 267.08537924 219.32421875 272.67578125 C220.27619384 273.6333639 221.22884259 274.59027725 222.18212891 275.54655457 C224.66788891 278.04367206 227.14449928 280.54966943 229.61920166 283.05773926 C232.15464714 285.62408366 234.69879601 288.18176903 237.2421875 290.74023438 C242.21549829 295.74554837 247.17917797 300.76031196 252.13671875 305.78125 C255.56154582 304.16348883 257.79362397 302.35781756 260.46484375 299.6484375 C261.2640625 298.84277344 262.06328125 298.03710938 262.88671875 297.20703125 C263.71171875 296.36527344 264.53671875 295.52351563 265.38671875 294.65625 C266.64742188 293.38201172 266.64742188 293.38201172 267.93359375 292.08203125 C270.00587558 289.98620077 272.07334268 287.88584287 274.13671875 285.78125 C272.59517065 282.06759306 270.33938939 279.80725134 267.453125 277.04296875 C266.0619043 275.68848633 266.0619043 275.68848633 264.64257812 274.30664062 C263.17403011 272.88755846 261.70250231 271.47188453 260.2253418 270.06176758 C248.68762425 259.01485229 248.68762425 259.01485229 247.76171875 250.21875 C248.30531955 245.23574271 249.88097229 242.18920815 253.19921875 238.46875 C257.34846774 236.08513888 261.3674159 235.24762171 266.13671875 235.78125 C274.35075417 238.73581095 279.70990694 244.89953211 285.63671875 251.03125 C286.65921228 252.07384328 287.68264285 253.11551845 288.70703125 254.15625 C291.19449012 256.68741887 293.66902495 259.23079041 296.13671875 261.78125 C299.7043616 260.26748919 301.97378162 258.17611871 304.68359375 255.4296875 C305.52792969 254.57890625 306.37226563 253.728125 307.2421875 252.8515625 C308.11488281 251.96210938 308.98757813 251.07265625 309.88671875 250.15625 C310.77488281 249.2590625 311.66304688 248.361875 312.578125 247.4375 C314.76888844 245.22317996 316.95484638 243.00432565 319.13671875 240.78125 C314.38233301 235.03622752 309.24281395 229.8321696 303.90625 224.62890625 C302.11593973 222.86584012 300.32624451 221.10214926 298.53710938 219.33789062 C295.73839495 216.58246416 292.93618154 213.83104618 290.12329102 211.09008789 C287.39352392 208.42703414 284.68004848 205.74824417 281.96875 203.06640625 C281.12810501 202.25470474 280.28746002 201.44300323 279.42134094 200.60670471 C274.44009388 195.64844569 270.26691444 191.11069504 270.08576965 183.69569397 C270.44371451 179.41957066 271.40092705 176.08306757 274.13671875 172.78125 C278.49016739 169.70198145 282.41321485 169.40921884 287.57421875 169.28515625 C295.374879 170.79534505 301.02182109 178.4108134 306.34765625 183.796875 C307.32513239 184.77808675 308.30305509 185.75885383 309.28140259 186.73919678 C311.8405447 189.30593221 314.39362022 191.87861877 316.94543457 194.45263672 C319.5563056 197.08405938 322.1729309 199.70974664 324.7890625 202.3359375 C329.91056316 207.47881207 335.02566176 212.62799399 340.13671875 217.78125 C343.66016519 216.1226312 345.93573753 214.21467692 348.68359375 211.4296875 C349.52792969 210.57890625 350.37226563 209.728125 351.2421875 208.8515625 C352.11488281 207.96210938 352.98757813 207.07265625 353.88671875 206.15625 C354.77488281 205.2590625 355.66304688 204.361875 356.578125 203.4375 C358.76888844 201.22317996 360.95484638 199.00432565 363.13671875 196.78125 C361.56689961 192.95370722 359.15175533 190.60927812 356.19921875 187.75390625 C355.21212208 186.78722935 354.22514663 185.82042865 353.23828125 184.85351562 C351.68706976 183.34577539 350.13346312 181.840607 348.57714844 180.33813477 C347.06964922 178.87908747 345.57161683 177.4108081 344.07421875 175.94140625 C343.17574219 175.07136963 342.27726562 174.20133301 341.3515625 173.30493164 C337.64702846 169.08383724 336.71063095 165.39169848 336.890625 159.76953125 C337.45584949 155.20287622 339.36447319 152.51488328 342.63671875 149.40625 C347.43377058 147.17904736 351.93297443 146.78727637 357.13671875 147.78125 C361.48648057 150.40054193 364.97356352 153.38088118 368.53515625 156.984375 C369.2548912 157.7083548 369.2548912 157.7083548 369.98916626 158.44696045 C371.50149931 159.97037479 373.0066779 161.50063455 374.51171875 163.03125 C375.54380327 164.07337993 376.57635129 165.11505105 377.609375 166.15625 C380.12386471 168.69263979 382.63199314 171.23521326 385.13671875 173.78125 C390.38846801 169.39682474 395.26894348 164.77282907 400.07421875 159.90625 C401.09999023 158.87371094 401.09999023 158.87371094 402.14648438 157.8203125 C403.81223339 156.14291489 405.47558095 154.46321209 407.13671875 152.78125 C405.66586383 149.36621945 403.76756003 147.18856923 401.11767578 144.59863281 C400.28986603 143.78388489 399.46205627 142.96913696 398.60916138 142.12969971 C397.71333344 141.25674255 396.81750549 140.3837854 395.89453125 139.484375 C394.48872807 138.09739384 393.0829368 136.71040036 391.67783928 135.32270432 C388.21849803 131.90912317 384.74865729 128.50628366 381.27294922 125.109375 C379.32239398 123.20223356 377.37742539 121.28969239 375.43795776 119.37127686 C373.61452012 117.56841725 371.78291654 115.77376899 369.94216919 113.98858643 C364.28240214 108.37467152 359.8018018 103.43683135 358.63671875 95.28125 C359.27126241 90.83944439 360.39686555 87.36973029 363.13671875 83.78125 C367.83055113 80.89273777 372.67790962 79.69340602 378.13671875 80.78125 C385.42952492 84.02168837 390.82844309 90.08537924 396.32421875 95.67578125 C397.27619384 96.6333639 398.22884259 97.59027725 399.18212891 98.54655457 C401.66788891 101.04367206 404.14449928 103.54966943 406.61920166 106.05773926 C409.15464714 108.62408366 411.69879601 111.18176903 414.2421875 113.74023438 C419.21549829 118.74554837 424.17917797 123.76031196 429.13671875 128.78125 C431.89788792 127.44843509 433.95355997 126.2135769 436.1171875 124.03125 C436.64119141 123.5053125 437.16519531 122.979375 437.70507812 122.4375 C438.23939453 121.8909375 438.77371094 121.344375 439.32421875 120.78125 C439.87013672 120.2346875 440.41605469 119.688125 440.97851562 119.125 C444.40222636 115.66310662 445.96589238 114.01974117 446.63671875 109.15625 C446.59241979 105.36479941 445.59705164 103.71281596 443.04328918 100.95372009 C442.40523157 100.25926725 441.76717396 99.56481441 441.10978127 98.84931755 C438.14991379 95.74692935 435.16868046 92.67369808 432.1315918 89.64672852 C431.4705394 88.9839238 430.809487 88.32111908 430.12840271 87.63822937 C427.97090061 85.47637153 425.80981613 83.31813788 423.6484375 81.16015625 C422.13851056 79.64955495 420.62873204 78.13880529 419.11909485 76.62791443 C415.96960852 73.47696007 412.81833601 70.32780614 409.66577148 67.17993164 C405.6192479 63.13913432 401.57726986 59.09382443 397.53659344 55.04718113 C394.42697803 51.93396099 391.3149958 48.82311555 388.20228004 45.71299553 C386.70995435 44.22133783 385.21837365 42.72893442 383.72754478 41.23578072 C381.65239202 39.15809973 379.57408068 37.0836318 377.49487305 35.01000977 C376.87721069 34.39032318 376.25954834 33.7706366 375.62316895 33.13217163 C371.28933592 28.80052721 371.28933592 28.80052721 365.51171875 27.28125 C355.59776523 27.52454822 345.32703367 42.45260792 338.66627502 49.12471008 Z M2.13671875 33.78125 C4.18446188 45.9718079 7.24763364 57.90405402 10.25683594 69.88476562 C10.92590003 72.55268198 11.58473867 75.22279563 12.234375 77.89550781 C19.16893647 106.48082651 19.16893647 106.48082651 35.13671875 130.78125 C36.25433594 132.07482422 36.25433594 132.07482422 37.39453125 133.39453125 C41.75698925 138.38547897 46.02717567 142.40164165 51.13671875 146.78125 C72.25671875 125.66125 93.37671875 104.54125 115.13671875 82.78125 C94.02514384 58.15107927 71.24051727 49.95708959 40.60748291 42.35137939 C37.53555992 41.58432247 34.4679985 40.80059357 31.40043163 40.0163269 C27.72432327 39.07730149 24.04587973 38.14759173 20.3671875 37.21875 C19.67279257 37.04263184 18.97839764 36.86651367 18.26296043 36.68505859 C16.30314696 36.18983845 14.34143109 35.70216535 12.37963867 35.21484375 C10.7111512 34.79803345 10.7111512 34.79803345 9.00895691 34.37280273 C5.97251051 33.64676901 5.97251051 33.64676901 2.13671875 33.78125 Z M131.88981628 108.77931213 C131.30791031 109.36840866 130.72600433 109.95750519 130.12646484 110.56445312 C129.51169785 111.17892807 128.89693085 111.79340302 128.26353455 112.42649841 C126.22430148 114.46712943 124.19225134 116.51476275 122.16015625 118.5625 C120.75097465 119.97541008 119.34135204 121.38788044 117.93130493 122.79992676 C114.2147696 126.52411156 110.50427825 130.2542627 106.79498291 133.98565674 C103.01146146 137.78960833 99.22229747 141.58792987 95.43359375 145.38671875 C87.9957455 152.84604009 80.56426544 160.31167192 73.13671875 167.78125 C74.68655075 171.48169944 76.94066546 173.82706087 79.77001953 176.64160156 C80.23848297 177.11035706 80.70694641 177.57911255 81.18960571 178.06207275 C82.7323857 179.60346432 84.28211839 181.13765873 85.83203125 182.671875 C86.90578067 183.74189255 87.97908808 184.81235381 89.05197144 185.88323975 C91.87192327 188.69556879 94.69783029 191.50183889 97.52502441 194.30688477 C100.41093245 197.17230523 103.29116132 200.04342168 106.171875 202.9140625 C111.82128364 208.54204512 117.476997 214.16363884 123.13671875 219.78125 C127.31287674 218.14381066 130.10153405 215.08343208 133.19042969 211.95458984 C133.7859816 211.35932999 134.38153351 210.76407013 134.99513245 210.15077209 C136.95856518 208.18594823 138.91482248 206.21413961 140.87109375 204.2421875 C142.23257515 202.87697521 143.59449936 201.51220439 144.95684814 200.14785767 C148.53855699 196.55851841 152.11421865 192.9632132 155.68865967 189.36663818 C159.33828996 185.69653681 162.99359967 182.03210171 166.6484375 178.3671875 C173.81677204 171.17741348 180.97873175 163.98132484 188.13671875 156.78125 C186.58798299 153.09371439 184.34634399 150.73739716 181.53515625 147.92089844 C181.0699054 147.45214294 180.60465454 146.98338745 180.12530518 146.50042725 C178.59242237 144.95877068 177.05237433 143.42451096 175.51171875 141.890625 C174.44290372 140.82046253 173.37438572 139.75000333 172.30615234 138.67926025 C170.06996957 136.44013251 167.83021782 134.2046537 165.58789062 131.97167969 C162.70920179 129.1044126 159.83962091 126.22822384 156.97262573 123.34926987 C154.76983605 121.13926821 152.56232374 118.93403367 150.35333252 116.73023224 C149.29287748 115.6711141 148.23391366 114.61050074 147.17645264 113.54839325 C145.70183623 112.06871951 144.22099937 110.59557254 142.73828125 109.12402344 C141.89604004 108.28337341 141.05379883 107.44272339 140.18603516 106.57659912 C136.33838571 103.20578042 135.06174688 105.62374792 131.88981628 108.77931213 Z M312.88981628 289.77931213 C312.30791031 290.36840866 311.72600433 290.95750519 311.12646484 291.56445312 C310.51169785 292.17892807 309.89693085 292.79340302 309.26353455 293.42649841 C307.22430148 295.46712943 305.19225134 297.51476275 303.16015625 299.5625 C301.75097465 300.97541008 300.34135204 302.38788044 298.93130493 303.79992676 C295.2147696 307.52411156 291.50427825 311.2542627 287.79498291 314.98565674 C284.01146146 318.78960833 280.22229747 322.58792987 276.43359375 326.38671875 C268.9957455 333.84604009 261.56426544 341.31167192 254.13671875 348.78125 C255.7673752 352.91750009 258.76895327 355.68081599 261.87158203 358.74316406 C262.45708832 359.3289624 263.0425946 359.91476074 263.64584351 360.51831055 C265.57820231 362.44927839 267.51754391 364.37306947 269.45703125 366.296875 C270.79982331 367.63593611 272.14217388 368.97544009 273.48410034 370.31536865 C277.01425592 373.83789429 280.55037681 377.35437203 284.08776855 380.86962891 C287.69754726 384.45893551 291.3016589 388.05392256 294.90625 391.6484375 C301.97753433 398.69828318 309.05513288 405.74175337 316.13671875 412.78125 C320.70636767 408.95724988 325.05761619 405.00306138 329.25561523 400.77587891 C329.82234451 400.20929565 330.38907379 399.6427124 330.97297668 399.05895996 C332.82030622 397.21094132 334.66408176 395.35942097 336.5078125 393.5078125 C337.79796278 392.21579448 339.08833599 390.92399904 340.37892151 389.63241577 C343.75616064 386.25137957 347.13038437 382.86734986 350.50396729 379.48266602 C353.95458804 376.02177041 357.40808213 372.56374457 360.86132812 369.10546875 C367.62259061 362.33351856 374.38066774 355.55839917 381.13671875 348.78125 C375.34001941 341.69603822 368.83457226 335.31506724 362.37109375 328.84765625 C361.12885397 327.60219951 359.886688 326.35666914 358.64459229 325.11106873 C356.05421887 322.51473621 353.46181608 319.92044967 350.86816406 317.32739258 C347.53843734 313.99776817 344.215683 310.66127636 340.89458847 307.32304478 C338.33817242 304.75554711 335.77726185 302.19256984 333.21503448 299.63087273 C331.9869767 298.40163231 330.76054608 297.17076412 329.53575897 295.93826485 C327.83158013 294.22434877 326.12125581 292.51681314 324.40917969 290.81079102 C323.90215515 290.29814697 323.39513062 289.78550293 322.8727417 289.25732422 C318.30240951 284.72819427 317.36801058 285.32422422 312.88981628 289.77931213 Z M397.88981628 374.77931213 C397.30791031 375.36840866 396.72600433 375.95750519 396.12646484 376.56445312 C395.51169785 377.17892807 394.89693085 377.79340302 394.26353455 378.42649841 C392.22430148 380.46712943 390.19225134 382.51476275 388.16015625 384.5625 C386.75097465 385.97541008 385.34135204 387.38788044 383.93130493 388.79992676 C380.2147696 392.52411156 376.50427825 396.2542627 372.79498291 399.98565674 C369.01146146 403.78960833 365.22229747 407.58792987 361.43359375 411.38671875 C353.9957455 418.84604009 346.56426544 426.31167192 339.13671875 433.78125 C341.05287489 437.95258691 343.88975148 440.84019883 347.10546875 444.05078125 C347.99788269 444.94962288 347.99788269 444.94962288 348.9083252 445.86662292 C350.17005332 447.13408861 351.43440335 448.39894888 352.70117188 449.66137695 C354.61088642 451.56796003 356.50696676 453.48737986 358.40234375 455.40820312 C370.65704636 467.72785395 382.60544655 477.94083963 400.69921875 478.09375 C413.58256906 478.11694235 423.17107227 473.93693759 432.82421875 465.40625 C443.65432158 453.11261977 446.98661909 442.22183804 446.31591797 425.96484375 C444.86968417 408.34207109 428.44238448 394.89974167 416.7409668 383.20019531 C415.17142377 381.62841541 413.61011882 380.0487228 412.04882812 378.46875 C411.04866412 377.46565999 410.04803133 376.46303711 409.046875 375.4609375 C408.15105713 374.56101074 407.25523926 373.66108398 406.33227539 372.73388672 C402.37767673 369.21683122 401.20867315 371.47757975 397.88981628 374.77931213 Z " fill="#000000" transform="translate(34.86328125,3.21875)"/>
</svg>
