<?xml version="1.0" encoding="UTF-8"?>
<svg version="1.1" xmlns="http://www.w3.org/2000/svg" width="512" height="512">
<path d="M0 0 C1.10612471 -0.00538554 2.21224942 -0.01077108 3.35189307 -0.01631981 C7.05979183 -0.03063172 10.76733523 -0.02348744 14.47525024 -0.01637268 C17.13308341 -0.02207457 19.79089102 -0.02893745 22.44871521 -0.03717041 C28.91966639 -0.05435943 35.39052048 -0.05519816 41.86148857 -0.04995751 C47.1220614 -0.04591447 52.38260556 -0.04736095 57.64317703 -0.05270576 C58.76667729 -0.0538284 58.76667729 -0.0538284 59.91287453 -0.05497371 C61.43452648 -0.05650521 62.95617843 -0.05804355 64.47783037 -0.05958868 C78.74532598 -0.07331429 93.01276675 -0.06787579 107.28026111 -0.05640347 C120.32721337 -0.04647277 133.37402378 -0.05940877 146.42095415 -0.08333766 C159.82314457 -0.10773256 173.22526893 -0.11733546 186.6274811 -0.11068493 C194.14954733 -0.10719335 201.6715045 -0.10942062 209.19355392 -0.12693596 C215.59749227 -0.14166293 222.00124476 -0.14228712 228.40517949 -0.12486505 C231.67107711 -0.11635621 234.93657472 -0.11637289 238.20246696 -0.1295166 C241.7467011 -0.14269137 245.29003326 -0.13120858 248.83422852 -0.11352539 C250.37480582 -0.1279329 250.37480582 -0.1279329 251.9465059 -0.14263147 C258.81481851 -0.07213826 264.30319032 1.09178385 269.56622732 5.7287398 C274.42731108 11.01586365 275.47519731 17.18398994 275.29800415 24.1181488 C274.64362878 29.96725791 272.33324608 35.32427652 268.0440979 39.38768005 C261.38847009 43.36915067 255.36157213 43.94976053 247.74111938 43.84178162 C246.64740524 43.84236572 245.5536911 43.84294983 244.42683411 43.84355164 C240.83928846 43.84078196 237.25259079 43.80974156 233.66519165 43.77830505 C231.16699172 43.77083873 228.6687859 43.76514765 226.170578 43.76115417 C220.28459878 43.74748207 214.39892883 43.71601015 208.51307589 43.67575622 C201.14781918 43.6264883 193.78252432 43.60513949 186.41714478 43.58299255 C173.29264359 43.5401765 160.16838985 43.47273834 147.0440979 43.38768005 C147.04523706 44.07021646 147.04637622 44.75275287 147.0475499 45.45597219 C147.11467994 85.90604005 147.16615547 126.35610072 147.19729389 166.80621299 C147.20104602 171.66279586 147.20492899 176.51937861 147.20889282 181.3759613 C147.20967975 182.34282201 147.21046668 183.30968271 147.21127746 184.30584222 C147.2243324 199.96238232 147.24798674 215.61888938 147.27555629 231.27540988 C147.30360802 247.33970273 147.32027367 263.40397828 147.32636338 279.46829462 C147.3304803 289.38132751 147.34348467 299.29426701 147.3678473 309.20727116 C147.38370162 316.00441828 147.38849894 322.80151711 147.38460203 329.59868139 C147.38268002 333.52065259 147.38563242 337.44246057 147.40171432 341.36440277 C147.41633885 344.95719572 147.41703386 348.54971605 147.40679459 352.14252168 C147.40493165 354.05334453 147.41784753 355.96416429 147.43134183 357.8749404 C147.3899572 365.80488639 146.64307676 372.15880605 141.7940979 378.70018005 C136.49514119 383.87870593 132.33901995 384.58564471 125.1065979 384.82518005 C118.27446432 384.65836575 113.6412643 383.59646345 108.52456665 379.0322113 C101.96666364 371.98293804 102.76132006 363.24455884 102.80358887 354.24560547 C102.80271603 352.90312794 102.80096361 351.56065074 102.79841053 350.21817535 C102.79394837 346.53983697 102.80192508 342.86161553 102.81196666 339.18329203 C102.82061518 335.21268959 102.81768 331.24209358 102.81616211 327.27148438 C102.81511415 320.39567061 102.82138149 313.51989485 102.83263779 306.64409065 C102.84890182 296.70287536 102.85410172 286.76167841 102.85661377 276.82045125 C102.86098945 260.69091359 102.87429512 244.56139618 102.89321899 228.43186951 C102.91158107 212.76487835 102.92573597 197.09789269 102.93423462 181.43089294 C102.93476007 180.46494544 102.93528551 179.49899794 102.93582688 178.5037793 C102.93843698 173.65783469 102.94096439 168.81189004 102.94345069 163.96594536 C102.96417924 123.77317609 102.99940133 83.58042941 103.0440979 43.38768005 C102.47517602 43.39136723 101.90625414 43.3950544 101.3200922 43.3988533 C87.44726815 43.48736944 73.57449389 43.55321392 59.70144749 43.59492874 C52.99240001 43.61551339 46.28354158 43.64355485 39.57461548 43.68943787 C33.09718258 43.73297625 26.61994581 43.75683441 20.14237785 43.76718903 C17.6740911 43.77456595 15.20581478 43.78897133 12.73761177 43.81060028 C9.27386608 43.83973941 5.81092544 43.84363151 2.34707642 43.84178162 C1.33215118 43.85616272 0.31722595 43.87054382 -0.72845459 43.88536072 C-7.21436768 43.84800692 -12.35349197 42.76968687 -17.9559021 39.38768005 C-20.1121521 37.16893005 -20.1121521 37.16893005 -21.4559021 34.88768005 C-21.9199646 34.13486755 -22.3840271 33.38205505 -22.8621521 32.60643005 C-25.53844031 27.17738825 -25.81298091 21.10618734 -24.45980835 15.2353363 C-22.50415836 9.47887505 -19.62265301 5.1529015 -14.47267723 1.74394131 C-9.5905993 -0.13885554 -5.18979373 -0.03023801 0 0 Z " fill="#000000" transform="translate(130.95590209960938,63.61231994628906)"/>
</svg>
