<?xml version="1.0" encoding="UTF-8"?>
<svg version="1.1" xmlns="http://www.w3.org/2000/svg" width="512" height="512">
<path d="M0 0 C1.11697266 -0.020625 2.23394531 -0.04125 3.38476562 -0.0625 C18.91163371 -0.13450866 32.03342412 4.32654377 43.4375 15.05859375 C53.16527825 25.71735078 57.49962788 40.6808413 57.08447266 54.91357422 C56.14484077 66.31725136 50.76261968 77.27415829 46.625 87.8125 C45.6842616 90.26789047 44.74609054 92.72426618 43.81054688 95.18164062 C42.09409851 99.67888682 40.36374566 104.1701414 38.61401367 108.65454102 C38.2399791 109.62225433 37.86594452 110.58996765 37.48057556 111.58700562 C36.83773872 113.22818191 36.17891341 114.8633249 35.49415588 116.48745728 C33.57764543 121.14958043 33.02191692 125.34430171 33.06640625 130.328125 C33.04904479 131.83333585 33.03146023 133.33854414 33.01367188 134.84375 C33.00356345 137.18298753 33.00001597 139.52206953 33.00170898 141.86132812 C32.99814186 144.14238827 32.97084115 146.42227409 32.94140625 148.703125 C32.94958878 149.40109192 32.9577713 150.09905884 32.96620178 150.81817627 C32.91472077 154.1760916 32.64962853 155.96780366 30.6081543 158.68359375 C27.62951983 160.83306161 25.32670108 160.85443196 21.6875 161 C20.51703125 161.05671875 19.3465625 161.1134375 18.140625 161.171875 C16.80257812 161.21054687 16.80257812 161.21054687 15.4375 161.25 C16.56285156 162.30574219 16.56285156 162.30574219 17.7109375 163.3828125 C25.36380625 170.70743166 31.64149187 178.39549501 37.4375 187.25 C38.06269531 188.17941406 38.68789063 189.10882813 39.33203125 190.06640625 C56.69005887 217.61198959 61.39234387 254.05887488 54.27661133 285.62744141 C50.86700312 299.13035491 45.57213459 313.39467459 37.60546875 324.89453125 C37.22003906 325.67183594 36.83460938 326.44914062 36.4375 327.25 C37.6001585 330.34597445 39.3256614 332.3802019 41.65696716 334.68305969 C42.32009918 335.3431604 42.9832312 336.00326111 43.66645813 336.68336487 C44.39326279 337.39669479 45.12006744 338.11002472 45.86889648 338.8449707 C46.63490173 339.60484283 47.40090698 340.36471497 48.19012451 341.14761353 C49.85386228 342.79704556 51.51982756 344.44423309 53.18774223 346.0894413 C55.82792996 348.69486284 58.46097805 351.30730227 61.09205627 353.92192078 C68.57388318 361.35482995 76.06670346 368.77656739 83.56860352 376.18920898 C88.15703306 380.72403145 92.73564147 385.26858001 97.30836678 389.81923485 C99.05209422 391.55055429 100.79960655 393.27807042 102.55096245 395.00167274 C105.00209048 397.41430668 107.44059189 399.83906885 109.87670898 402.2668457 C110.60148941 402.97410294 111.32626984 403.68136017 112.07301331 404.41004944 C118.05991251 410.42039757 120.86517426 415.45241896 120.875 424.1875 C120.68318227 431.43053756 119.57436007 435.95596949 114.56640625 441.21484375 C108.88801653 446.46386563 104.46649273 448.53854473 96.625 448.625 C95.46355469 448.65335937 94.30210937 448.68171875 93.10546875 448.7109375 C84.4736707 447.6262174 79.11166898 442.48175989 73.24902344 436.4362793 C72.08648041 435.26256523 72.08648041 435.26256523 70.90045166 434.06513977 C69.228583 432.37477992 67.56132378 430.679851 65.89824677 428.98084068 C63.26836106 426.29509921 60.62561524 423.62263862 57.97906494 420.95332336 C51.41488363 414.32779025 44.87071787 407.6826207 38.33081055 401.03314209 C32.79195615 395.40206424 27.24316456 389.78107485 21.68006134 384.17392921 C19.07094971 381.53605882 16.47685526 378.88398747 13.88275146 376.23136902 C12.29207142 374.62573121 10.70066047 373.02081706 9.10839844 371.41674805 C8.38728882 370.67137787 7.6661792 369.92600769 6.92321777 369.15805054 C5.92261322 368.15908501 5.92261322 368.15908501 4.90179443 367.13993835 C4.32592464 366.55426433 3.75005486 365.9685903 3.15673447 365.36516857 C1.48106695 364.01806291 1.48106695 364.01806291 -0.6618309 364.49882221 C-2.85689342 365.36634945 -4.60456724 366.49161521 -6.5625 367.8125 C-33.7595419 384.45965691 -70.00139019 389.09470844 -100.94116211 382.08618164 C-108.73210361 380.12123536 -116.21177362 377.48031417 -123.5625 374.25 C-124.54379883 373.82509277 -124.54379883 373.82509277 -125.54492188 373.39160156 C-156.47920834 359.73524583 -179.85356093 333.50420931 -192.1640625 302.2734375 C-195.5625 293.24984217 -195.5625 293.24984217 -195.5625 288.25 C-196.51092773 288.27094727 -197.45935547 288.29189453 -198.43652344 288.31347656 C-201.96266425 288.3817356 -205.48810099 288.43183929 -209.01464844 288.46972656 C-210.53950085 288.48981599 -212.06427648 288.51709316 -213.58886719 288.55175781 C-215.78339598 288.60039796 -217.97690469 288.62299396 -220.171875 288.640625 C-221.49155273 288.66157227 -222.81123047 288.68251953 -224.17089844 288.70410156 C-227.5625 288.25 -227.5625 288.25 -230 286.64648438 C-232.08888898 283.4426509 -232.01994084 281.32412806 -231.953125 277.515625 C-231.94023437 276.22011719 -231.92734375 274.92460937 -231.9140625 273.58984375 C-231.88064366 272.22655176 -231.84678391 270.86327051 -231.8125 269.5 C-231.79242707 268.12111936 -231.77417767 266.74221088 -231.7578125 265.36328125 C-231.71065448 261.99148256 -231.64484538 258.62109313 -231.5625 255.25 C-232.18793701 255.14623047 -232.81337402 255.04246094 -233.45776367 254.93554688 C-239.34709238 253.87214178 -244.467622 252.28653257 -249.875 249.75 C-251.22499919 249.13484307 -252.57525364 248.52024597 -253.92578125 247.90625 C-255.12589844 247.3596875 -256.32601562 246.813125 -257.5625 246.25 C-259.22650308 245.57671257 -260.89266072 244.90867975 -262.5625 244.25 C-263.12759277 244.82032959 -263.69268555 245.39065918 -264.27490234 245.97827148 C-266.82650355 248.55060675 -269.38194458 251.11909337 -271.9375 253.6875 C-273.27167969 255.03424805 -273.27167969 255.03424805 -274.6328125 256.40820312 C-275.48359375 257.26220703 -276.334375 258.11621094 -277.2109375 258.99609375 C-278.38922119 260.18223267 -278.38922119 260.18223267 -279.59130859 261.39233398 C-282.65055508 264.27539151 -285.1453257 264.78398682 -289.37329102 264.71362305 C-292.06776632 264.14299646 -293.19754309 263.19276368 -295.21484375 261.33203125 C-295.90642578 260.69668457 -296.59800781 260.06133789 -297.31054688 259.40673828 C-301.42470138 255.46653436 -305.48121955 251.47490028 -309.5 247.4375 C-310.36173828 246.57962891 -311.22347656 245.72175781 -312.11132812 244.83789062 C-312.92923828 244.01869141 -313.74714844 243.19949219 -314.58984375 242.35546875 C-315.69960571 241.24401489 -315.69960571 241.24401489 -316.83178711 240.11010742 C-319.62373083 237.10942761 -320.10741321 234.55626798 -320.01171875 230.44140625 C-319.0983573 225.98579082 -315.71639884 223.32759483 -312.5625 220.25 C-311.44109981 219.12008371 -310.32144292 217.98843576 -309.203125 216.85546875 C-306.01087549 213.63173835 -302.79229941 210.43608784 -299.5625 207.25 C-299.82466309 206.66621582 -300.08682617 206.08243164 -300.35693359 205.48095703 C-301.56104366 202.78355877 -302.74929576 200.07944033 -303.9375 197.375 C-304.35 196.4571875 -304.7625 195.539375 -305.1875 194.59375 C-307.82783125 188.54653971 -309.56399681 182.7748548 -310.5625 176.25 C-311.17770508 176.27094727 -311.79291016 176.29189453 -312.42675781 176.31347656 C-315.22183809 176.39677017 -318.01665715 176.44870013 -320.8125 176.5 C-321.78058594 176.53351563 -322.74867188 176.56703125 -323.74609375 176.6015625 C-324.68066406 176.61445313 -325.61523438 176.62734375 -326.578125 176.640625 C-327.43696289 176.66157227 -328.29580078 176.68251953 -329.18066406 176.70410156 C-331.5625 176.25 -331.5625 176.25 -333.84082031 174.78808594 C-336.39059507 171.02922911 -336.13653477 167.69791354 -336.09375 163.25 C-336.0975769 162.37730469 -336.10140381 161.50460938 -336.10534668 160.60546875 C-336.1080649 158.76300908 -336.10070994 156.92051076 -336.08398438 155.078125 C-336.06257248 152.25954066 -336.08378801 149.44350515 -336.109375 146.625 C-336.10673171 144.83332771 -336.10160669 143.04165701 -336.09375 141.25 C-336.10184692 140.40824219 -336.10994385 139.56648437 -336.11828613 138.69921875 C-336.05824237 134.94849811 -335.98374569 132.87099691 -333.84082031 129.71191406 C-331.1591385 127.99117781 -329.74270033 127.78219024 -326.578125 127.859375 C-325.64355469 127.87226563 -324.70898438 127.88515625 -323.74609375 127.8984375 C-322.77800781 127.93195313 -321.80992187 127.96546875 -320.8125 128 C-319.82894531 128.01804687 -318.84539062 128.03609375 -317.83203125 128.0546875 C-315.40786217 128.10175874 -312.98567941 128.16749258 -310.5625 128.25 C-310.45873047 127.62456299 -310.35496094 126.99912598 -310.24804688 126.35473633 C-309.18464178 120.46540762 -307.59903257 115.344878 -305.0625 109.9375 C-304.44734307 108.58750081 -303.83274597 107.23724636 -303.21875 105.88671875 C-302.39890625 104.08654297 -302.39890625 104.08654297 -301.5625 102.25 C-300.88921257 100.58599692 -300.22117975 98.91983928 -299.5625 97.25 C-300.13282959 96.68490723 -300.70315918 96.11981445 -301.29077148 95.53759766 C-303.86310675 92.98599645 -306.43159337 90.43055542 -309 87.875 C-310.34674805 86.54082031 -310.34674805 86.54082031 -311.72070312 85.1796875 C-312.57470703 84.32890625 -313.42871094 83.478125 -314.30859375 82.6015625 C-315.09935303 81.81604004 -315.8901123 81.03051758 -316.70483398 80.22119141 C-319.58789151 77.16194492 -320.09648682 74.6671743 -320.02612305 70.43920898 C-319.45549646 67.74473368 -318.50526368 66.61495691 -316.64453125 64.59765625 C-316.00918457 63.90607422 -315.37383789 63.21449219 -314.71923828 62.50195312 C-310.77903436 58.38779862 -306.78740028 54.33128045 -302.75 50.3125 C-301.46319336 49.01989258 -301.46319336 49.01989258 -300.15039062 47.70117188 C-299.33119141 46.88326172 -298.51199219 46.06535156 -297.66796875 45.22265625 C-296.92699951 44.48281494 -296.18603027 43.74297363 -295.42260742 42.98071289 C-292.42192761 40.18876917 -289.86876798 39.70508679 -285.75390625 39.80078125 C-281.29829082 40.7141427 -278.64009483 44.09610116 -275.5625 47.25 C-274.43258371 48.37140019 -273.30093576 49.49105708 -272.16796875 50.609375 C-268.94423835 53.80162451 -265.74858784 57.02020059 -262.5625 60.25 C-261.97871582 59.98783691 -261.39493164 59.72567383 -260.79345703 59.45556641 C-258.09605877 58.25145634 -255.39194033 57.06320424 -252.6875 55.875 C-251.7696875 55.4625 -250.851875 55.05 -249.90625 54.625 C-243.85903971 51.98466875 -238.0873548 50.24850319 -231.5625 49.25 C-231.5939209 47.96367676 -231.5939209 47.96367676 -231.62597656 46.65136719 C-231.69426527 43.46081528 -231.74435513 40.27063654 -231.78222656 37.07958984 C-231.80230642 35.7002332 -231.82957666 34.32096131 -231.86425781 32.94189453 C-231.91292817 30.95643021 -231.93336418 28.97033746 -231.953125 26.984375 C-231.9845459 25.19338379 -231.9845459 25.19338379 -232.01660156 23.36621094 C-231.5625 20.25 -231.5625 20.25 -230.10058594 17.86230469 C-226.32480689 15.46376248 -222.95237448 15.67652351 -218.5625 15.71875 C-217.68980469 15.7149231 -216.81710938 15.71109619 -215.91796875 15.70715332 C-214.07550908 15.7044351 -212.23301076 15.71179006 -210.390625 15.72851562 C-207.57204066 15.74992752 -204.75600515 15.72871199 -201.9375 15.703125 C-200.14582771 15.70576829 -198.35415701 15.71089331 -196.5625 15.71875 C-195.72074219 15.71065308 -194.87898437 15.70255615 -194.01171875 15.69421387 C-190.33488001 15.75307488 -188.17457308 15.86118405 -185.02441406 17.86230469 C-183.06526329 21.06212008 -183.10626166 23.24441436 -183.171875 26.984375 C-183.18476563 28.27988281 -183.19765625 29.57539062 -183.2109375 30.91015625 C-183.24435634 32.27344824 -183.27821609 33.63672949 -183.3125 35 C-183.33257293 36.37888064 -183.35082233 37.75778912 -183.3671875 39.13671875 C-183.41434552 42.50851744 -183.48015462 45.87890687 -183.5625 49.25 C-182.93706299 49.35376953 -182.31162598 49.45753906 -181.66723633 49.56445312 C-175.77790762 50.62785822 -170.657378 52.21346743 -165.25 54.75 C-163.90000081 55.36515693 -162.54974636 55.97975403 -161.19921875 56.59375 C-159.99910156 57.1403125 -158.79898438 57.686875 -157.5625 58.25 C-155.89849692 58.92328743 -154.23233928 59.59132025 -152.5625 60.25 C-151.99740723 59.67967041 -151.43231445 59.10934082 -150.85009766 58.52172852 C-148.29849645 55.94939325 -145.74305542 53.38090663 -143.1875 50.8125 C-142.29804688 49.91466797 -141.40859375 49.01683594 -140.4921875 48.09179688 C-139.64140625 47.23779297 -138.790625 46.38378906 -137.9140625 45.50390625 C-137.12854004 44.71314697 -136.34301758 43.9223877 -135.53369141 43.10766602 C-132.47444492 40.22460849 -129.9796743 39.71601318 -125.75170898 39.78637695 C-123.05723368 40.35700354 -121.92745691 41.30723632 -119.91015625 43.16796875 C-118.8727832 44.12098877 -118.8727832 44.12098877 -117.81445312 45.09326172 C-113.70029862 49.03346564 -109.64378045 53.02509972 -105.625 57.0625 C-104.76326172 57.92037109 -103.90152344 58.77824219 -103.01367188 59.66210938 C-102.19576172 60.48130859 -101.37785156 61.30050781 -100.53515625 62.14453125 C-99.42539429 63.25598511 -99.42539429 63.25598511 -98.29321289 64.38989258 C-95.50126917 67.39057239 -95.01758679 69.94373202 -95.11328125 74.05859375 C-96.0266427 78.51420918 -99.40860116 81.17240517 -102.5625 84.25 C-103.68390019 85.37991629 -104.80355708 86.51156424 -105.921875 87.64453125 C-109.11412451 90.86826165 -112.33270059 94.06391216 -115.5625 97.25 C-115.30033691 97.83378418 -115.03817383 98.41756836 -114.76806641 99.01904297 C-113.56395634 101.71644123 -112.37570424 104.42055967 -111.1875 107.125 C-110.56875 108.50171875 -110.56875 108.50171875 -109.9375 109.90625 C-109.53789062 110.82148438 -109.13828125 111.73671875 -108.7265625 112.6796875 C-108.35998535 113.50710449 -107.9934082 114.33452148 -107.61572266 115.18701172 C-106.14753497 119.45680372 -105.36750939 123.81384972 -104.5625 128.25 C-103.70830475 128.23667633 -103.70830475 128.23667633 -102.83685303 128.2230835 C-96.8000311 128.13318328 -90.76340508 128.07368873 -84.72607422 128.03027344 C-82.48608656 128.01040801 -80.24614896 127.98330628 -78.00634766 127.94824219 C-62.44572782 127.71110141 -47.46113312 128.28378896 -32.5625 133.25 C-32.01777722 124.97520404 -33.33265196 118.63400342 -36.32421875 110.94921875 C-36.71188919 109.9103804 -37.09955963 108.87154205 -37.49897766 107.80122375 C-38.73256511 104.50671635 -39.99052747 101.22218694 -41.25 97.9375 C-42.07654631 95.74607431 -42.90143031 93.55402089 -43.72460938 91.36132812 C-45.30071059 87.16944746 -46.88001177 82.97881172 -48.46435547 78.79003906 C-48.8239032 77.83915405 -49.18345093 76.88826904 -49.55389404 75.90856934 C-50.18211191 74.25265927 -50.8130234 72.59776546 -51.44805908 70.94445801 C-57.01522182 56.43878981 -57.67444706 42.93900045 -51.30859375 28.3828125 C-44.29553133 14.5859976 -34.54147243 7.06538621 -20.10546875 2.01171875 C-13.40263684 0.00395804 -6.9507646 0.03132739 0 0 Z M-29.84375 27.47265625 C-37.07043623 34.94570678 -38.99691269 43.85709629 -38.87277222 53.98040771 C-38.33320844 59.66623286 -36.32221631 64.67101278 -34.22265625 69.9453125 C-33.78110703 71.09998016 -33.3395578 72.25464783 -32.8846283 73.44430542 C-31.48334184 77.09536684 -30.05463697 80.73495956 -28.625 84.375 C-27.66577039 86.85519068 -26.71302522 89.33781453 -25.75976562 91.8203125 C-21.98281233 102.17362265 -21.98281233 102.17362265 -17.5625 112.25 C-5.6825 112.25 6.1975 112.25 18.4375 112.25 C21.15087872 105.59956195 23.81258316 98.93534938 26.4375 92.25 C26.70290588 91.57825745 26.96831177 90.90651489 27.24176025 90.2144165 C29.03409168 85.6765446 30.80140639 81.12992847 32.54385376 76.57266235 C33.13443805 75.0376837 33.73196229 73.50535526 34.33676147 71.97592163 C39.21974427 59.60192833 41.71620125 49.13116734 36.89453125 36.1484375 C32.92491856 28.25178169 26.78629398 22.21191654 18.4375 19.25 C17.365 18.858125 16.2925 18.46625 15.1875 18.0625 C-0.88762592 14.57955605 -17.47569018 15.86533026 -29.84375 27.47265625 Z M-215.5625 32.25 C-215.59988281 34.23644531 -215.63726562 36.22289062 -215.67578125 38.26953125 C-215.72445816 40.19574613 -215.77323808 42.12195995 -215.82495117 44.0480957 C-215.87451319 46.0429063 -215.90901133 48.03807257 -215.94335938 50.03320312 C-215.9965332 51.91362305 -215.9965332 51.91362305 -216.05078125 53.83203125 C-216.07696533 54.98936768 -216.10314941 56.1467041 -216.13012695 57.33911133 C-216.5625 60.25 -216.5625 60.25 -217.82421875 62.06835938 C-219.84249044 63.44033058 -221.51521778 63.99945374 -223.88671875 64.57421875 C-224.74346191 64.79432617 -225.60020508 65.01443359 -226.48291016 65.24121094 C-227.3960498 65.47098633 -228.30918945 65.70076172 -229.25 65.9375 C-240.16306499 68.84890612 -250.13475496 72.96483664 -259.5625 79.25 C-263.50323816 79.85112955 -266.03523787 80.19129217 -269.4765625 78.0703125 C-271.62193218 76.225118 -273.58724047 74.27714901 -275.5625 72.25 C-276.54393058 71.27698649 -277.52711145 70.30573631 -278.51171875 69.3359375 C-281.21708392 66.66165359 -283.89480058 63.96183415 -286.5625 61.25 C-290.01451639 62.72721422 -292.21211936 64.68794001 -294.8125 67.375 C-295.51890625 68.09945312 -296.2253125 68.82390625 -296.953125 69.5703125 C-297.74976563 70.40175781 -297.74976563 70.40175781 -298.5625 71.25 C-297.17653133 74.38405668 -295.57178844 76.46834182 -293.12109375 78.8515625 C-292.45529297 79.50640625 -291.78949219 80.16125 -291.10351562 80.8359375 C-290.06227539 81.84527344 -290.06227539 81.84527344 -289 82.875 C-287.62151463 84.21911869 -286.24510599 85.56537153 -284.87109375 86.9140625 C-283.95541626 87.80279053 -283.95541626 87.80279053 -283.02124023 88.70947266 C-280.27588664 91.60874984 -280.24894641 94.22189429 -280.30371094 98.14550781 C-280.7190052 101.52271208 -282.33463754 103.8144783 -284.1875 106.625 C-290.64971235 117.0070562 -293.79050851 128.85503192 -296.921875 140.59765625 C-297.5625 142.25 -297.5625 142.25 -299.5625 143.25 C-301.0820764 143.40123831 -302.60722502 143.49881693 -304.1328125 143.56640625 C-305.02871094 143.60830078 -305.92460937 143.65019531 -306.84765625 143.69335938 C-307.78480469 143.73267578 -308.72195313 143.77199219 -309.6875 143.8125 C-310.63238281 143.85568359 -311.57726562 143.89886719 -312.55078125 143.94335938 C-314.88784172 144.0495894 -317.2251513 144.15031271 -319.5625 144.25 C-319.5625 149.53 -319.5625 154.81 -319.5625 160.25 C-318.15355469 160.28738281 -316.74460937 160.32476562 -315.29296875 160.36328125 C-313.44528561 160.42893497 -311.59763055 160.49538251 -309.75 160.5625 C-308.3568457 160.59633789 -308.3568457 160.59633789 -306.93554688 160.63085938 C-306.04287109 160.66630859 -305.15019531 160.70175781 -304.23046875 160.73828125 C-302.99719849 160.77755737 -302.99719849 160.77755737 -301.73901367 160.81762695 C-299.04298829 161.35320305 -298.1912609 162.05696339 -296.5625 164.25 C-295.7980957 166.2644043 -295.7980957 166.2644043 -295.23828125 168.57421875 C-295.01817383 169.43096191 -294.79806641 170.28770508 -294.57128906 171.17041016 C-294.34151367 172.0835498 -294.11173828 172.99668945 -293.875 173.9375 C-290.96359388 184.85056499 -286.84766336 194.82225496 -280.5625 204.25 C-279.96137045 208.19073816 -279.62120783 210.72273787 -281.7421875 214.1640625 C-283.587382 216.30943218 -285.53535099 218.27474047 -287.5625 220.25 C-288.53551351 221.23143058 -289.50676369 222.21461145 -290.4765625 223.19921875 C-293.15084641 225.90458392 -295.85066585 228.58230058 -298.5625 231.25 C-297.08528578 234.70201639 -295.12455999 236.89961936 -292.4375 239.5 C-291.71304688 240.20640625 -290.98859375 240.9128125 -290.2421875 241.640625 C-289.41074219 242.43726563 -289.41074219 242.43726563 -288.5625 243.25 C-285.42844332 241.86403133 -283.34415818 240.25928844 -280.9609375 237.80859375 C-280.30609375 237.14279297 -279.65125 236.47699219 -278.9765625 235.79101562 C-278.30367187 235.09685547 -277.63078125 234.40269531 -276.9375 233.6875 C-275.59338131 232.30901463 -274.24712847 230.93260599 -272.8984375 229.55859375 C-272.30595215 228.94814209 -271.7134668 228.33769043 -271.10302734 227.70874023 C-268.20375016 224.96338664 -265.59060571 224.93644641 -261.66699219 224.99121094 C-258.28978792 225.4065052 -255.9980217 227.02213754 -253.1875 228.875 C-242.8054438 235.33721235 -230.95746808 238.47800851 -219.21484375 241.609375 C-217.5625 242.25 -217.5625 242.25 -216.5625 244.25 C-216.40808791 246.35374996 -216.31257361 248.46195119 -216.24609375 250.5703125 C-216.20419922 251.82714844 -216.16230469 253.08398438 -216.11914062 254.37890625 C-216.07982422 255.69761719 -216.04050781 257.01632812 -216 258.375 C-215.95680488 259.71485751 -215.91319027 261.05470156 -215.86914062 262.39453125 C-215.7627909 265.6795562 -215.66211683 268.96476398 -215.5625 272.25 C-210.2825 272.25 -205.0025 272.25 -199.5625 272.25 C-199.53671875 270.17203125 -199.5109375 268.0940625 -199.484375 265.953125 C-199.17519533 247.18731533 -198.61879679 228.84686729 -191.296875 211.24609375 C-190.38986011 209.13523317 -190.38986011 209.13523317 -190.5625 206.25 C-191.33722656 206.40726563 -192.11195313 206.56453125 -192.91015625 206.7265625 C-209.28967468 209.07400151 -225.21394085 208.1944376 -239.1875 198.6875 C-240.66433969 197.56562003 -242.12325209 196.41971603 -243.5625 195.25 C-244.38363281 194.64414063 -245.20476562 194.03828125 -246.05078125 193.4140625 C-257.25777304 183.75827175 -262.05915726 169.61088158 -263.37109375 155.3046875 C-264.32487797 140.48759678 -259.32647068 126.54155092 -250.13671875 115.04296875 C-239.42870464 103.42501718 -226.1335793 97.73771172 -210.546875 96.40625 C-195.06953466 95.79929548 -181.24568361 100.69848906 -169.44921875 110.56640625 C-165.34875113 114.37834299 -162.33600043 118.40636524 -159.5625 123.25 C-159.16675781 123.92804688 -158.77101562 124.60609375 -158.36328125 125.3046875 C-153.19256862 134.87723356 -152.01235231 144.48456879 -151.5625 155.25 C-150.90765625 154.82589844 -150.2528125 154.40179688 -149.578125 153.96484375 C-140.16243998 147.91380323 -130.65720558 142.10322384 -120.5625 137.25 C-120.96590285 125.95472027 -125.51733261 115.24392698 -131.4375 105.75 C-134.46512388 100.74901413 -135.9137301 98.04098612 -134.5625 92.25 C-132.60558044 89.18394687 -130.15987498 86.78088927 -127.5625 84.25 C-126.58948649 83.26856942 -125.61823631 82.28538855 -124.6484375 81.30078125 C-121.97415359 78.59541608 -119.27433415 75.91769942 -116.5625 73.25 C-118.03971422 69.79798361 -120.00044001 67.60038064 -122.6875 65 C-123.77417969 63.94039062 -123.77417969 63.94039062 -124.8828125 62.859375 C-125.43710938 62.32828125 -125.99140625 61.7971875 -126.5625 61.25 C-129.69655668 62.63596867 -131.78084182 64.24071156 -134.1640625 66.69140625 C-134.81890625 67.35720703 -135.47375 68.02300781 -136.1484375 68.70898438 C-136.82132813 69.40314453 -137.49421875 70.09730469 -138.1875 70.8125 C-139.53161869 72.19098537 -140.87787153 73.56739401 -142.2265625 74.94140625 C-142.81904785 75.55185791 -143.4115332 76.16230957 -144.02197266 76.79125977 C-146.92124984 79.53661336 -149.53439429 79.56355359 -153.45800781 79.50878906 C-156.83521208 79.0934948 -159.1269783 77.47786246 -161.9375 75.625 C-172.3195562 69.16278765 -184.16753192 66.02199149 -195.91015625 62.890625 C-197.5625 62.25 -197.5625 62.25 -198.5625 60.25 C-198.71691209 58.14625004 -198.81242639 56.03804881 -198.87890625 53.9296875 C-198.92080078 52.67285156 -198.96269531 51.41601562 -199.00585938 50.12109375 C-199.04517578 48.80238281 -199.08449219 47.48367187 -199.125 46.125 C-199.16819512 44.78514249 -199.21180973 43.44529844 -199.25585938 42.10546875 C-199.3622091 38.8204438 -199.46288317 35.53523602 -199.5625 32.25 C-204.8425 32.25 -210.1225 32.25 -215.5625 32.25 Z M-236.3125 124.375 C-244.87372351 133.44340499 -247.05851257 144.17501099 -246.83984375 156.12890625 C-246.33182245 167.15119928 -240.66085909 175.48654154 -232.9375 182.9375 C-223.48853046 190.69597594 -213.38253453 192.4758153 -201.51904297 191.48925781 C-190.79726332 190.17813427 -182.56179096 184.08448227 -175.75 176 C-168.56222391 166.03740803 -167.00514281 155.24397479 -168.5625 143.25 C-171.19480831 132.21455362 -178.20857637 123.69902016 -187.75 117.75 C-204.3260521 108.7108318 -222.35312982 111.90584581 -236.3125 124.375 Z M-15.5625 128.25 C-16.80367634 139.26291253 -16.80367634 139.26291253 -13.3984375 142.984375 C-8.16514564 145.43949958 -1.80937897 144.65836279 3.8125 144.5 C5.02550781 144.48195312 6.23851562 144.46390625 7.48828125 144.4453125 C10.47169459 144.39832961 13.45469991 144.32659116 16.4375 144.25 C16.4375 138.97 16.4375 133.69 16.4375 128.25 C5.8775 128.25 -4.6825 128.25 -15.5625 128.25 Z M-149.46533203 176.07421875 C-171.39430539 197.72665287 -182.92573341 225.56941635 -183.1875 256.25 C-182.92583856 286.91826049 -171.47427854 314.16477174 -149.94140625 335.97265625 C-127.43746159 358.08719411 -98.85775281 367.71335509 -67.83911133 367.68383789 C-38.00993924 367.23082696 -10.89086564 354.278593 9.78466797 333.01708984 C32.9901091 308.20749119 40.29015545 278.75677471 39.57373047 245.52978516 C39.31075009 239.19846194 38.22872349 233.33871534 36.4375 227.25 C36.0971875 226.02925781 35.756875 224.80851562 35.40625 223.55078125 C26.7222224 195.00497432 6.35552526 171.48279974 -19.68652344 157.23876953 C-62.43516095 134.70727787 -114.80760866 142.84833871 -149.46533203 176.07421875 Z M21.2734375 344.21875 C20.46132813 345.0540625 19.64921875 345.889375 18.8125 346.75 C17.58660156 348.00296875 17.58660156 348.00296875 16.3359375 349.28125 C15.70945312 349.9309375 15.08296875 350.580625 14.4375 351.25 C15.76584869 354.19179958 17.21363001 356.27954723 19.48492432 358.56484985 C20.11006424 359.19851974 20.73520416 359.83218964 21.37928772 360.48506165 C22.06397629 361.16884384 22.74866486 361.85262604 23.45410156 362.55712891 C24.17627365 363.28601822 24.89844574 364.01490753 25.64250183 364.7658844 C28.03240051 367.1747876 30.42978119 369.57606914 32.828125 371.9765625 C34.49256072 373.64742399 36.15684495 375.31843642 37.82098389 376.98959351 C41.31117127 380.49175951 44.80547247 383.98976226 48.30224609 387.48535156 C52.78258139 391.96548355 57.24899995 396.45921557 61.71197891 400.9566288 C65.1452367 404.41212065 68.58754312 407.8584872 72.03246307 411.30234909 C73.68309666 412.95534346 75.33048653 414.6115835 76.97455597 416.27110672 C79.27476052 418.59090073 81.58728597 420.89768491 83.90332031 423.20166016 C84.57991196 423.88949081 85.2565036 424.57732147 85.95359802 425.28599548 C89.52602627 428.81133367 92.3258356 431.3168524 97.4375 432.25 C100.68343268 430.99588965 102.04873129 429.84935177 103.9375 426.9375 C104.65657453 423.0724744 103.4587925 421.6184741 101.4375 418.25 C99.15284844 415.55058031 96.66538013 413.07799272 94.15209961 410.59228516 C93.41360275 409.85013763 92.6751059 409.10799011 91.91423035 408.34335327 C89.4800999 405.90114 87.03531285 403.46991786 84.58984375 401.0390625 C82.89447282 399.34421025 81.19962008 397.6488395 79.50526428 395.95297241 C75.9583241 392.40612184 72.40628043 388.86448866 68.8503418 385.32666016 C64.28285546 380.78192098 59.72658951 376.22612694 55.1738348 371.66663551 C51.67849413 368.16796193 48.17820143 364.67427844 44.67627144 361.18220139 C42.99353942 359.50332883 41.31216618 357.82309327 39.63215446 356.14149857 C37.29083082 353.79980605 34.94314769 351.46468959 32.59350586 349.13134766 C31.5453772 348.07950287 31.5453772 348.07950287 30.47607422 347.00640869 C29.83818466 346.37560394 29.2002951 345.74479919 28.54307556 345.09487915 C27.71101042 344.26589332 27.71101042 344.26589332 26.86213589 343.42016029 C24.34569022 341.35321474 23.60764747 342.0952088 21.2734375 344.21875 Z " fill="#000000" transform="translate(359.5625,47.75)"/>
<path d="M0 0 C19.3335661 16.06600619 34.03213206 37.49112887 37 63 C39.00657074 91.37618281 34.15218075 116.91231191 15.43359375 139.08984375 C2.75473292 153.62954946 -12.57990618 164.10556998 -31 170 C-31.97066406 170.3196875 -32.94132812 170.639375 -33.94140625 170.96875 C-57.91786342 177.45049562 -84.28074282 173.47410476 -106 162 C-129.02696288 148.70999787 -145.2252281 127.81365095 -152.83691406 102.38574219 C-159.68837584 76.78291135 -155.18456417 49.37896934 -142.0859375 26.68359375 C-127.77546238 4.3626734 -106.24154761 -11.72032574 -80.30175781 -17.86621094 C-52.17015552 -23.43301985 -22.71758728 -17.63156027 0 0 Z M-117 22 C-133.18115275 38.83936913 -138.56951323 60.15434883 -138.26953125 82.8984375 C-137.7620394 99.21317535 -130.63316977 115.61813918 -120 128 C-119.50371094 128.63808594 -119.00742188 129.27617187 -118.49609375 129.93359375 C-107.29375678 143.78130186 -88.66456374 153.71743702 -71 156 C-46.63041737 157.97148155 -24.91523422 152.49093466 -5.96484375 136.68359375 C7.94918109 124.0894764 18.84354172 105.54772158 20.17700195 86.46728516 C20.69284879 63.92210674 17.13182272 43.62034529 2 26 C1.50371094 25.36191406 1.00742187 24.72382813 0.49609375 24.06640625 C-11.01535242 9.83659448 -29.07126584 0.72979436 -47 -2 C-47.94746094 -2.15210938 -48.89492188 -2.30421875 -49.87109375 -2.4609375 C-75.10352784 -5.54223881 -99.09705213 4.68243462 -117 22 Z " fill="#000000" transform="translate(347,227)"/>
<path d="M0 0 C0.66 -0.0103125 1.32 -0.020625 2 -0.03125 C5.03603772 0.77519752 6.12514315 1.98165415 8 4.5 C8.66756474 7.26809174 9.14121204 9.82082108 9.5 12.625 C11.66099525 26.60930352 16.80417424 36.72560387 27.828125 45.93359375 C36.75257448 52.37011217 46.24226938 54.5526126 57.01171875 55.7421875 C60.51575829 56.63079361 61.84339551 57.62795869 64 60.5 C64.53125 62.5 64.53125 62.5 64.5 64.5 C64.51546875 65.49 64.51546875 65.49 64.53125 66.5 C63.73228224 69.50787861 62.49198858 70.65932661 60 72.5 C44.89416188 74.80581904 30.46243998 69.79824297 18 61.5 C5.54659289 52.33290865 -4.42539633 38.23893359 -7.71484375 22.94140625 C-8.13065002 19.38142102 -8.29296925 15.83014202 -8.375 12.25 C-8.40118408 11.55173096 -8.42736816 10.85346191 -8.4543457 10.1340332 C-8.46539883 6.73908545 -8.23639752 4.82699921 -6.2265625 2.046875 C-3.88228867 0.4182216 -2.8143336 -0.04397396 0 0 Z " fill="#000000" transform="translate(232,295.5)"/>
<path d="M0 0 C2.75171298 1.90503206 3.71801879 3.2856476 4.9375 6.375 C5.02685833 10.12804996 4.05823778 11.84194051 2 15 C-0.72225529 17.00223183 -3.64191051 18.42729861 -6.6875 19.875 C-7.46544922 20.2771875 -8.24339844 20.679375 -9.04492188 21.09375 C-14.29334862 23.667624 -18.15871028 24.59435442 -24 24 C-26.75171298 22.09496794 -27.71801879 20.7143524 -28.9375 17.625 C-29.02685833 13.87195004 -28.05823778 12.15805949 -26 9 C-23.27774471 6.99776817 -20.35808949 5.57270139 -17.3125 4.125 C-16.14557617 3.52171875 -16.14557617 3.52171875 -14.95507812 2.90625 C-9.70665138 0.332376 -5.84128972 -0.59435442 0 0 Z " fill="#000000" transform="translate(444,40)"/>
<path d="M0 0 C3.474612 1.20275031 6.63945217 2.82665873 9.875 4.5625 C10.72835938 4.98080078 11.58171875 5.39910156 12.4609375 5.83007812 C16.6908809 8.05548348 18.62201853 9.16790336 20.6484375 13.62890625 C21.0770667 17.73898405 20.27003815 19.59494278 18 23 C14.73061161 24.6346942 11.53395024 24.51276635 8 24 C4.50653881 22.68615942 1.31396271 20.94782774 -1.9375 19.125 C-2.79923828 18.66480469 -3.66097656 18.20460938 -4.54882812 17.73046875 C-10.84704748 14.30590503 -10.84704748 14.30590503 -12 12 C-12.56872038 4.9478673 -12.56872038 4.9478673 -10.5 1.5 C-7.0076072 -0.59543568 -3.92849151 -0.56796469 0 0 Z " fill="#000000" transform="translate(284,40)"/>
<path d="M0 0 C1.6346942 3.26938839 1.51276635 6.46604976 1 10 C-0.31384058 13.49346119 -2.05217226 16.68603729 -3.875 19.9375 C-4.33519531 20.79923828 -4.79539062 21.66097656 -5.26953125 22.54882812 C-8.69409497 28.84704748 -8.69409497 28.84704748 -11 30 C-18.0521327 30.56872038 -18.0521327 30.56872038 -21.5 28.5 C-23.5957644 25.00705934 -23.57546623 21.92875936 -23 18 C-21.7741571 14.52607152 -20.12781029 11.35941212 -18.375 8.125 C-17.94832031 7.27164062 -17.52164062 6.41828125 -17.08203125 5.5390625 C-15.03069467 1.66907827 -13.83632209 -0.55494588 -9.90234375 -2.6484375 C-5.55293494 -3.17528379 -3.80264971 -2.08772926 0 0 Z " fill="#000000" transform="translate(415,10)"/>
<path d="M0 0 C3.47991251 0.92435176 5.19600878 3.24781447 7.06445312 6.23046875 C8.18599368 8.22115234 9.22517977 10.23920081 10.25 12.28125 C10.61351562 12.95929687 10.97703125 13.63734375 11.3515625 14.3359375 C13.869233 19.31448894 14.50242141 22.95676486 14 28.53125 C12.5 31.03125 12.5 31.03125 10 32.53125 C7.22011721 33.07811219 4.74791413 33.26116469 2 32.53125 C-2.00740395 29.40736818 -4.01653636 25.23163311 -6.25 20.78125 C-6.79527344 19.76417969 -6.79527344 19.76417969 -7.3515625 18.7265625 C-9.869233 13.74801106 -10.50242141 10.10573514 -10 4.53125 C-7.44699652 0.2762442 -4.60968987 0.0720264 0 0 Z " fill="#000000" transform="translate(314,7.46875)"/>
<path d="M0 0 C0.66 -0.0103125 1.32 -0.020625 2 -0.03125 C4.91796104 0.7438334 6.0931088 2.19104167 8 4.5 C8.51757812 7.09375 8.51757812 7.09375 8.53125 10 C8.53640625 11.051875 8.5415625 12.10375 8.546875 13.1875 C8.53140625 14.280625 8.5159375 15.37375 8.5 16.5 C8.51546875 17.593125 8.5309375 18.68625 8.546875 19.8125 C8.54171875 20.864375 8.5365625 21.91625 8.53125 23 C8.52673828 23.9590625 8.52222656 24.918125 8.51757812 25.90625 C7.857725 29.21298564 6.58886445 30.40908706 4 32.5 C2 33.03125 2 33.03125 0 33 C-0.99 33.01546875 -0.99 33.01546875 -2 33.03125 C-4.91796104 32.2561666 -6.0931088 30.80895833 -8 28.5 C-8.51757812 25.90625 -8.51757812 25.90625 -8.53125 23 C-8.53640625 21.948125 -8.5415625 20.89625 -8.546875 19.8125 C-8.53140625 18.719375 -8.5159375 17.62625 -8.5 16.5 C-8.51546875 15.406875 -8.5309375 14.31375 -8.546875 13.1875 C-8.53914063 11.6096875 -8.53914063 11.6096875 -8.53125 10 C-8.52673828 9.0409375 -8.52222656 8.081875 -8.51757812 7.09375 C-7.60329874 2.51200272 -4.67433964 -0.07303656 0 0 Z " fill="#000000" transform="translate(360,-0.5)"/>
</svg>
