<?xml version="1.0" encoding="UTF-8"?>
<svg version="1.1" xmlns="http://www.w3.org/2000/svg" width="512" height="512">
<path d="M0 0 C1.16485931 -0.0127597 2.32971863 -0.02551941 3.52987671 -0.03866577 C4.78926056 -0.04089142 6.04864441 -0.04311707 7.34619141 -0.04541016 C8.63965485 -0.05206696 9.93311829 -0.05872375 11.26577759 -0.06558228 C14.00453019 -0.07755538 16.74315667 -0.08126313 19.48193359 -0.08007812 C22.9848237 -0.07987504 26.4869015 -0.10716438 29.98959923 -0.14162254 C33.33764203 -0.16926291 36.68553599 -0.16804143 40.03369141 -0.17041016 C41.28902679 -0.18478119 42.54436218 -0.19915222 43.83773804 -0.21395874 C45.00890167 -0.20780548 46.18006531 -0.20165222 47.38671875 -0.1953125 C48.41469574 -0.19816254 49.44267273 -0.20101257 50.50180054 -0.20394897 C54.06110732 0.41995106 55.73687747 1.81894498 58.32275391 4.29052734 C59.58771166 6.82044285 59.44578001 8.55784503 59.44300842 11.39041138 C59.44507042 13.01005295 59.44507042 13.01005295 59.44717407 14.66241455 C59.44178116 16.44697052 59.44178116 16.44697052 59.4362793 18.26757812 C59.43642532 19.51632721 59.43657135 20.76507629 59.4367218 22.05166626 C59.43614343 25.48121398 59.43111909 28.91070192 59.42414784 32.34023905 C59.41790768 35.92237072 59.41730998 39.50450314 59.41612244 43.0866394 C59.41301108 49.87227985 59.40480032 56.65790423 59.39477295 63.44353759 C59.38360575 71.1677395 59.37809983 78.89194217 59.37307751 86.61615014 C59.36261755 102.50761852 59.34502188 118.39907086 59.32275391 134.29052734 C60.40758057 134.27828125 61.49240723 134.26603516 62.61010742 134.25341797 C81.90739478 134.44630201 101.27073829 147.1462241 114.88134766 159.79833984 C132.72092092 178.00897624 139.59687094 200.84023495 139.6418457 225.82788086 C139.54364182 235.29030058 138.47630291 243.36067571 135.32275391 252.29052734 C134.98373047 253.31404297 134.64470703 254.33755859 134.29541016 255.39208984 C126.18663155 277.26559227 108.88072071 293.99295627 88.32275391 304.29052734 C66.18084741 314.43350595 40.29167094 314.14774013 17.67041016 305.97021484 C-6.28350378 296.45106989 -22.53885088 278.55877764 -32.67724609 255.29052734 C-41.7881198 233.17570629 -40.54227087 208.05552585 -31.47412109 186.14990234 C-28.37643012 179.20631965 -24.39300394 171.64799822 -18.71277332 166.51547623 C-14.06078085 162.14576574 -12.13499476 158.89559691 -11.69743347 152.47137451 C-11.66573078 149.77109692 -11.67637727 147.09293823 -11.72485352 144.39501953 C-11.72215466 142.9042764 -11.71589196 141.41353614 -11.70635986 139.92282104 C-11.69355398 136.72868436 -11.70575912 133.53600072 -11.7379055 130.34200287 C-11.78868161 125.29050367 -11.78352284 120.23997651 -11.77131653 115.18829346 C-11.75868041 107.2009145 -11.78402542 99.21417592 -11.82533675 91.22691083 C-11.89834555 76.91400815 -11.91120139 62.60101278 -11.90318185 48.28794599 C-11.90193705 43.26722108 -11.91884505 38.24697586 -11.95082986 33.22635603 C-11.96829154 30.10571562 -11.97383611 26.98512924 -11.97662354 23.86444473 C-11.98060237 22.41843631 -11.98978428 20.97243135 -12.00457191 19.52649307 C-12.02417842 17.55166589 -12.02365623 15.57666953 -12.0221405 13.60174561 C-12.03081288 11.9448427 -12.03081288 11.9448427 -12.03966045 10.25446701 C-11.62410173 6.85589584 -10.71592853 5.02013921 -8.67724609 2.29052734 C-5.26448995 0.01535658 -4.01192146 0.029799 0 0 Z M5.32275391 17.29052734 C5.32275391 59.53052734 5.32275391 101.77052734 5.32275391 145.29052734 C9.38077612 143.93785327 13.07029355 142.56744164 16.94775391 140.85302734 C25.24798883 137.35764891 33.42285944 135.56194084 42.32275391 134.29052734 C42.32275391 95.68052734 42.32275391 57.07052734 42.32275391 17.29052734 C30.11275391 17.29052734 17.90275391 17.29052734 5.32275391 17.29052734 Z M4.32275391 167.29052734 C3.08332031 168.21865234 3.08332031 168.21865234 1.81884766 169.16552734 C-11.54265398 180.54057725 -20.16184608 199.01496723 -21.67724609 216.29052734 C-23.02371143 237.57124771 -16.10572153 256.07115995 -2.25927734 272.08740234 C11.00727967 286.00779603 28.88787179 294.10996016 48.06494141 295.28662109 C68.74030937 295.3114117 87.68512708 287.85864692 102.49853516 273.30224609 C116.92834 258.36355699 122.77478432 240.44234828 122.68408203 220.09912109 C122.33955216 201.44698692 115.24258425 185.11297899 102.10009766 171.93896484 C86.83742906 157.38469015 69.11794236 149.83668784 47.91259766 150.07958984 C31.32152602 151.05447327 17.19338013 156.95217067 4.32275391 167.29052734 Z " fill="#000000" transform="translate(343.67724609375,192.70947265625)"/>
<path d="M0 0 C0.97926956 -0.00700928 1.95853912 -0.01401855 2.96748352 -0.02124023 C6.20582399 -0.03885136 9.44329121 -0.02718603 12.68164062 -0.01367188 C14.93078784 -0.01636588 17.17993392 -0.02024754 19.42907715 -0.02526855 C24.14342332 -0.03116785 28.85746639 -0.02258649 33.57177734 -0.00390625 C39.61820348 0.01888319 45.66391945 0.00576247 51.71031952 -0.01819611 C56.35485191 -0.03264223 60.99921561 -0.02805346 65.64375305 -0.01768494 C67.8733173 -0.01501439 70.1028968 -0.01829889 72.33244324 -0.02760315 C75.44730262 -0.03774889 78.56100795 -0.02229448 81.67578125 0 C83.06142021 -0.01214539 83.06142021 -0.01214539 84.47505188 -0.02453613 C90.7261525 0.05845865 90.7261525 0.05845865 93.87927246 2.42492676 C96.30798291 5.90935083 96.44956665 7.91343992 96.40039062 12.14257812 C96.39136719 13.14546875 96.38234375 14.14835937 96.37304688 15.18164062 C96.35564453 16.33792969 96.35564453 16.33792969 96.33789062 17.51757812 C97.00844482 17.50186768 97.67899902 17.48615723 98.36987305 17.4699707 C101.42162572 17.40743154 104.47324331 17.36852749 107.52539062 17.33007812 C108.58048828 17.30494141 109.63558594 17.27980469 110.72265625 17.25390625 C112.2550293 17.2394043 112.2550293 17.2394043 113.81835938 17.22460938 C114.75574951 17.20889893 115.69313965 17.19318848 116.65893555 17.17700195 C119.87045416 17.58528305 121.73167694 18.62927115 124.33789062 20.51757812 C125.8379651 23.51772708 125.54212664 26.61919007 125.57617188 29.91210938 C125.58424362 30.6553093 125.59231537 31.39850922 125.60063171 32.16423035 C125.61448366 33.74544949 125.62520084 35.32669868 125.63305664 36.90795898 C125.64447234 38.50310205 125.66475491 40.09821017 125.69458008 41.69311523 C125.99173499 57.5917328 123.58941801 70.26813318 112.59960938 82.44335938 C106.00441066 88.81259839 97.1506627 92.71788687 88.65039062 95.89648438 C84.91549146 97.7242947 83.62909425 99.24741757 81.40039062 102.70507812 C75.28495294 111.60239437 68.83932953 117.37745544 59.33789062 122.51757812 C61.55847984 129.06831632 63.51472373 134.16025433 69.83789062 137.64257812 C74.27168906 139.74675365 78.8856525 140.58979335 83.70117188 141.41601562 C86.33789062 142.51757813 86.33789062 142.51757813 88.16992188 145.14648438 C89.49745338 148.97812212 89.73741212 152.02994499 89.71289062 156.08007812 C89.720625 157.36011719 89.72835937 158.64015625 89.73632812 159.95898438 C89.31739492 163.70063286 88.61588947 165.56045755 86.33789062 168.51757812 C82.58228698 171.02131389 79.6238769 170.81318511 75.27392578 170.80810547 C74.45246567 170.81482269 73.63100555 170.82153992 72.78465271 170.82846069 C70.06535821 170.84747973 67.34631002 170.85136689 64.62695312 170.85351562 C62.73749693 170.85994103 60.84804173 170.8666692 58.95858765 170.87368774 C54.9958058 170.88567041 51.03311119 170.88936757 47.0703125 170.88818359 C41.99363835 170.88798039 36.91752393 170.91527928 31.84098244 170.94972801 C27.93760614 170.97197175 24.03436505 170.97602191 20.13093185 170.97496414 C18.25943447 170.97732404 16.38793358 170.98616939 14.51649857 171.00162888 C11.89748265 171.02123717 9.27968022 171.01547142 6.66064453 171.00341797 C5.88852127 171.01465698 5.11639801 171.025896 4.32087708 171.03747559 C0.62006302 170.99422036 -1.48541703 170.62934534 -4.64283752 168.6321106 C-7.03693774 166.12506696 -7.29398865 165.09082275 -7.29101562 161.67382812 C-7.29294922 160.75730469 -7.29488281 159.84078125 -7.296875 158.89648438 C-7.27302734 157.94644531 -7.24917969 156.99640625 -7.22460938 156.01757812 C-7.23556641 155.06753906 -7.24652344 154.1175 -7.2578125 153.13867188 C-7.18605946 146.33648348 -7.18605946 146.33648348 -5.01757812 142.94726562 C-2.13789107 141.19939587 0.2665889 140.68563457 3.58789062 140.14257812 C10.56175597 138.67892737 15.71474352 136.53076899 19.70898438 130.41992188 C21.72191929 126.6563226 21.72191929 126.6563226 22.33789062 122.51757812 C20.71274988 121.41224343 19.03490327 120.38403932 17.33789062 119.39257812 C8.34384106 113.80012423 1.759197 106.63214946 -3.66210938 97.51757812 C-3.66210938 96.85757813 -3.66210938 96.19757813 -3.66210938 95.51757812 C-4.89960938 95.31132813 -6.13710938 95.10507813 -7.41210938 94.89257812 C-18.5105452 92.37972473 -28.72152949 86.32171008 -35.44335938 77.06445312 C-41.09386059 68.03473059 -43.78883746 59.38426602 -43.90039062 48.73242188 C-43.90846237 47.99431778 -43.91653412 47.25621368 -43.92485046 46.4957428 C-43.93862611 44.94176541 -43.94937715 43.3877586 -43.95727539 41.83374023 C-43.96884509 40.24608483 -43.98937498 38.65846981 -44.01879883 37.07104492 C-44.06139889 34.77040337 -44.07762685 32.47090836 -44.08789062 30.16992188 C-44.10539871 29.46254379 -44.1229068 28.75516571 -44.14094543 28.02635193 C-44.1258122 24.59027373 -43.91490535 22.83872541 -41.76049805 20.10180664 C-38.36035429 17.53478711 -36.43879154 17.39770085 -32.21679688 17.41992188 C-31.14042969 17.42314453 -30.0640625 17.42636719 -28.95507812 17.4296875 C-27.82714844 17.43806641 -26.69921875 17.44644531 -25.53710938 17.45507812 C-24.40144531 17.45958984 -23.26578125 17.46410156 -22.09570312 17.46875 C-19.28445299 17.48056198 -16.47330707 17.49703306 -13.66210938 17.51757812 C-13.70851563 16.62554688 -13.75492187 15.73351562 -13.80273438 14.81445312 C-13.856875 13.05875 -13.856875 13.05875 -13.91210938 11.26757812 C-13.95851563 10.10742188 -14.00492187 8.94726562 -14.05273438 7.75195312 C-13.66210938 4.51757812 -13.66210938 4.51757812 -12.24157715 2.34777832 C-8.3218703 -0.43335673 -4.69722157 -0.04117203 0 0 Z M3.33789062 16.51757812 C3.25539063 25.01507813 3.17289062 33.51257813 3.08789062 42.26757812 C3.05147461 44.92530273 3.01505859 47.58302734 2.97753906 50.32128906 C2.96583952 52.46483557 2.95565071 54.60839108 2.94726562 56.75195312 C2.92680176 57.83492676 2.90633789 58.91790039 2.88525391 60.03369141 C2.87823979 75.62606649 9.70901714 89.31566972 20.33789062 100.51757812 C27.27195118 106.32632746 33.77587274 110.07712894 42.97851562 109.83007812 C52.47960509 108.57165568 60.43660752 102.01051774 66.46289062 94.95507812 C79.48462815 77.84006358 79.77266074 59.23091539 79.52539062 38.64257812 C79.46351563 31.34132813 79.40164063 24.04007813 79.33789062 16.51757812 C54.25789063 16.51757812 29.17789063 16.51757812 3.33789062 16.51757812 Z M-26.66210938 34.51757812 C-27.7957341 52.26713421 -27.7957341 52.26713421 -20.68554688 67.95117188 C-18.75830525 69.97302354 -16.89058655 71.83416139 -14.66210938 73.51757812 C-14.00210937 73.51757812 -13.34210938 73.51757812 -12.66210938 73.51757812 C-12.99210937 60.64757812 -13.32210938 47.77757812 -13.66210938 34.51757812 C-17.95210938 34.51757812 -22.24210937 34.51757812 -26.66210938 34.51757812 Z M96.33789062 34.51757812 C96.31283447 35.37923584 96.28777832 36.24089355 96.26196289 37.12866211 C96.16607374 40.36606242 96.06689277 43.60334152 95.96557617 46.84057617 C95.92261709 48.23409162 95.88092007 49.62764663 95.84057617 51.02124023 C95.62140427 58.56237724 95.32444827 66.03134657 94.33789062 73.51757812 C97.51777885 72.00726497 99.54630528 70.53631603 101.90039062 67.89257812 C102.47917969 67.2609375 103.05796875 66.62929687 103.65429688 65.97851562 C108.41155852 59.0247457 108.74502018 52.6832923 108.52539062 44.51757812 C108.51185547 43.55207031 108.49832031 42.5865625 108.484375 41.59179688 C108.44935047 39.23347854 108.39555601 36.87545148 108.33789062 34.51757812 C104.37789062 34.51757812 100.41789063 34.51757812 96.33789062 34.51757812 Z M40.33789062 126.51757812 C39.59345703 128.12826172 39.59345703 128.12826172 38.83398438 129.77148438 C31.92538355 144.36601062 31.92538355 144.36601062 25.33789062 149.51757812 C23.68789063 150.83757812 22.03789062 152.15757812 20.33789062 153.51757812 C33.86789062 153.51757812 47.39789063 153.51757812 61.33789062 153.51757812 C58.86289062 151.53757813 58.86289062 151.53757813 56.33789062 149.51757812 C49.26013227 143.64747185 44.20349523 135.6069773 42.33789062 126.51757812 C41.67789063 126.51757812 41.01789063 126.51757812 40.33789062 126.51757812 Z " fill="#000000" transform="translate(326.662109375,7.482421875)"/>
<path d="M0 0 C1.81196617 -0.01879967 1.81196617 -0.01879967 3.66053772 -0.03797913 C5.60445656 -0.01809181 5.60445656 -0.01809181 7.58764648 0.00219727 C8.9385548 0.001368 10.28946301 -0.00109356 11.6403656 -0.00511169 C14.46579511 -0.00796469 17.29042967 0.00668239 20.11572266 0.03417969 C23.73311104 0.06829639 27.34908174 0.06222982 30.96653843 0.04351711 C33.75391921 0.03293847 36.54097123 0.04189182 39.32832146 0.05690193 C41.30916396 0.06458677 43.29004633 0.05723666 45.27088928 0.04966736 C47.07812721 0.07342186 47.07812721 0.07342186 48.921875 0.09765625 C50.51141747 0.10695412 50.51141747 0.10695412 52.1330719 0.11643982 C55.76002263 0.79199036 56.70548546 1.66076783 58.89624023 4.63110352 C59.28895169 7.6991004 59.43655001 10.40739271 59.4041748 13.47521973 C59.41041477 14.37828023 59.41665473 15.28134074 59.42308378 16.21176672 C59.43906644 19.24438765 59.42638881 22.27621069 59.41381836 25.30883789 C59.41923712 27.48025482 59.4263584 29.65166808 59.43505859 31.82307434 C59.45332395 37.72590172 59.44621104 43.62845005 59.43354225 49.53128242 C59.42343127 55.70205576 59.43280264 61.87280485 59.43908691 68.0435791 C59.44636886 78.4072703 59.43676121 88.77084757 59.41772461 99.13452148 C59.39595485 111.12478509 59.40300581 123.11465673 59.42503023 135.10492277 C59.44316859 145.39035484 59.44575019 155.6757049 59.43527555 165.96114779 C59.42903205 172.10819236 59.4282286 178.25510898 59.44142151 184.40214539 C59.45295656 190.18060256 59.44499694 195.9587082 59.42184448 201.7371273 C59.41654487 203.86079512 59.41809244 205.98449239 59.42689514 208.10814857 C59.43778464 211.00149736 59.42416675 213.89371133 59.4041748 216.7869873 C59.41309769 217.63250703 59.42202058 218.47802676 59.43121386 219.3491683 C59.3822026 222.99213946 59.23198398 225.17520022 57.03998566 228.1516943 C54.17815085 230.12666052 52.27877004 230.14467496 48.81420898 230.16455078 C46.97209839 230.18830528 46.97209839 230.18830528 45.09277344 230.21253967 C43.75642517 230.20869833 42.42007988 230.20365936 41.08374023 230.19750977 C39.70898009 230.20274627 38.33422355 230.20902285 36.95947266 230.21629333 C34.08112659 230.22669259 31.20327505 230.22214322 28.32495117 230.20751953 C24.63902547 230.19032411 20.95465753 230.21383546 17.26890564 230.24900913 C14.43092551 230.27098461 11.59331818 230.26954174 8.75527954 230.26124382 C7.39651784 230.26042449 6.03772873 230.26728459 4.67904663 230.28201485 C2.77885685 230.29945952 0.87844239 230.28159923 -1.02172852 230.26220703 C-2.10220459 230.26124527 -3.18268066 230.26028351 -4.29589844 230.2592926 C-7.10375977 229.63110352 -7.10375977 229.63110352 -9.24708462 227.64694881 C-11.7580082 223.56839092 -11.66485342 220.44909972 -11.61842346 215.74938965 C-11.62536899 214.85434739 -11.63231452 213.95930512 -11.63947052 213.03714037 C-11.65776882 210.03760909 -11.64746828 207.03886618 -11.63720703 204.03930664 C-11.64426401 201.88906766 -11.65300809 199.73883365 -11.66331482 197.58860779 C-11.68584193 191.74776413 -11.68286142 185.90719101 -11.67399335 180.06632042 C-11.66888859 175.19279335 -11.67617178 170.31931735 -11.68346542 165.44579554 C-11.70047465 153.95104172 -11.69688779 142.45642062 -11.68017578 130.96166992 C-11.66324753 119.0957994 -11.67909661 107.23029656 -11.71139866 95.36446619 C-11.73807051 85.18175356 -11.74537722 74.99915556 -11.73688358 64.8164115 C-11.7319481 58.73246952 -11.73420394 52.6487489 -11.7546711 46.56483459 C-11.77299063 40.84540046 -11.76711476 35.12649656 -11.74247169 29.40709114 C-11.73745227 27.30641509 -11.74098274 25.20569889 -11.75362015 23.10505486 C-11.76949259 20.24036157 -11.75465465 17.37742684 -11.73194885 14.51281738 C-11.74378458 13.67867451 -11.75562031 12.84453164 -11.7678147 11.98511171 C-11.69885075 7.71173967 -11.46959126 6.09887185 -8.74513245 2.61525822 C-5.56502918 0.22641817 -3.94526105 0.00357797 0 0 Z M5.89624023 17.63110352 C5.89624023 81.98110352 5.89624023 146.33110352 5.89624023 212.63110352 C17.77624023 212.63110352 29.65624023 212.63110352 41.89624023 212.63110352 C41.89624023 148.28110352 41.89624023 83.93110352 41.89624023 17.63110352 C30.01624023 17.63110352 18.13624023 17.63110352 5.89624023 17.63110352 Z " fill="#000000" transform="translate(244.103759765625,243.368896484375)"/>
<path d="M0 0 C1.184729 -0.01583633 2.36945801 -0.03167267 3.59008789 -0.04798889 C4.86102295 -0.04302902 6.13195801 -0.03806915 7.44140625 -0.03295898 C8.75423584 -0.03915756 10.06706543 -0.04535614 11.41967773 -0.05174255 C14.19370102 -0.06213074 16.96721082 -0.05760842 19.74121094 -0.04296875 C23.28914844 -0.02577341 26.83546752 -0.04928993 30.38322449 -0.08445835 C33.77771339 -0.11174707 37.17181275 -0.1016956 40.56640625 -0.09545898 C41.83734131 -0.10871719 43.10827637 -0.1219754 44.41772461 -0.13563538 C46.19481812 -0.11683571 46.19481812 -0.11683571 48.0078125 -0.09765625 C49.04752197 -0.09669449 50.08723145 -0.09573273 51.15844727 -0.09474182 C55.09230419 0.77373177 56.47086722 2.4409529 59.00390625 5.53344727 C59.63031864 8.68035126 59.63031864 8.68035126 59.63209534 12.28918457 C59.63918972 12.9555479 59.64628411 13.62191123 59.65359348 14.30846739 C59.67115255 16.53444356 59.65308226 18.75866857 59.63500977 20.98461914 C59.64014946 22.58314305 59.64743112 24.18166129 59.6566925 25.78016663 C59.67520866 30.11705824 59.66226685 34.45333515 59.64260221 38.79020119 C59.62621604 43.32958313 59.63502855 47.86892613 59.64012146 52.4083252 C59.64464246 60.03134988 59.62877224 67.65412919 59.60083008 75.27709961 C59.56877809 84.08920307 59.56879386 92.90086399 59.58604485 101.71299887 C59.6019109 110.19141785 59.59517588 118.66967465 59.57810783 127.14808655 C59.57123682 130.75566426 59.57227029 134.36311199 59.57965279 137.97068787 C59.58731631 142.2193018 59.57518765 146.46741237 59.54780388 150.71594048 C59.54091961 152.27478478 59.54082257 153.8336761 59.54801941 155.392519 C59.55671546 157.52147691 59.5407588 159.64888183 59.51856995 161.77770996 C59.51576303 162.96862495 59.5129561 164.15953995 59.51006413 165.38654327 C58.9000179 169.17934584 57.71575403 170.85487136 55.00390625 173.53344727 C52.19604492 174.16163635 52.19604492 174.16163635 48.921875 174.16455078 C47.69380127 174.17708389 46.46572754 174.189617 45.20043945 174.20252991 C43.86408426 174.19026151 42.52773922 174.17684147 41.19140625 174.16235352 C39.81664848 174.16318249 38.44189081 174.16564295 37.06713867 174.16966248 C34.18866064 174.1725186 31.31096153 174.15783956 28.43261719 174.13037109 C24.74682674 174.09628674 21.06242877 174.1023072 17.37657166 174.12103367 C14.53857867 174.13161312 11.70090854 174.12265765 8.86294556 174.10764885 C7.50421101 174.10247339 6.14544266 174.10294117 4.78671265 174.1091938 C2.88640981 174.11465623 0.98609021 174.0913975 -0.9140625 174.06689453 C-2.53477661 174.05759666 -2.53477661 174.05759666 -4.18823242 174.04811096 C-7.78041569 173.38968588 -8.76706302 172.40002041 -10.99609375 169.53344727 C-11.50225163 166.47556305 -11.50225163 166.47556305 -11.51075745 162.81530762 C-11.52117574 161.80373525 -11.52117574 161.80373525 -11.5318045 160.77172709 C-11.55009504 158.51292719 -11.53980548 156.25517518 -11.52954102 153.99633789 C-11.53659846 152.37663486 -11.54534275 150.75693843 -11.5556488 149.13725281 C-11.57817106 144.73849319 -11.57519672 140.34009289 -11.56632733 135.94129753 C-11.56122161 132.27061911 -11.56850653 128.60000846 -11.57579941 124.92933702 C-11.59280706 116.27143474 -11.58922345 107.61370868 -11.57250977 98.95581055 C-11.55558146 90.01926444 -11.57143063 81.08320653 -11.60373265 72.14671373 C-11.63040715 64.47695818 -11.63771054 56.8073548 -11.62921757 49.13755751 C-11.6242828 44.55540602 -11.62653364 39.97354844 -11.64700508 35.39143372 C-11.66532915 31.08368938 -11.65944423 26.77664889 -11.63480568 22.46894264 C-11.62978756 20.88709173 -11.63331352 19.3051875 -11.64595413 17.72337914 C-11.66183706 15.5653009 -11.64698431 13.40955417 -11.62428284 11.25158691 C-11.62369653 10.04370262 -11.62311022 8.83581833 -11.62250614 7.59133148 C-10.99609375 4.53344727 -10.99609375 4.53344727 -8.63467312 2.14573002 C-5.50264069 0.23192673 -3.65199083 0.02177257 0 0 Z M6.00390625 17.53344727 C6.00390625 63.40344727 6.00390625 109.27344727 6.00390625 156.53344727 C17.88390625 156.53344727 29.76390625 156.53344727 42.00390625 156.53344727 C42.00390625 110.66344727 42.00390625 64.79344727 42.00390625 17.53344727 C30.12390625 17.53344727 18.24390625 17.53344727 6.00390625 17.53344727 Z " fill="#000000" transform="translate(144.99609375,299.466552734375)"/>
<path d="M0 0 C0.94793427 -0.00637985 1.89586853 -0.0127597 2.87252808 -0.01933289 C3.89959869 -0.02044571 4.92666931 -0.02155853 5.98486328 -0.02270508 C7.03795685 -0.02603348 8.09105042 -0.02936188 9.17605591 -0.03279114 C11.4070797 -0.03786075 13.63811108 -0.04019945 15.86914062 -0.04003906 C19.28414414 -0.04222288 22.69882333 -0.06037104 26.11376953 -0.0793457 C28.27913301 -0.08228013 30.44449802 -0.08426459 32.60986328 -0.08520508 C33.63288544 -0.09239059 34.65590759 -0.09957611 35.70993042 -0.10697937 C36.66416901 -0.10390274 37.61840759 -0.10082611 38.6015625 -0.09765625 C39.43936249 -0.09908127 40.27716248 -0.10050629 41.14035034 -0.10197449 C43.70624866 0.17507195 45.26370889 0.75223449 47.43017578 2.14526367 C50.63926263 6.95889395 49.70738001 12.07416712 48.72753906 17.55419922 C48.41016201 19.13182079 48.08411872 20.70771791 47.75048828 22.28198242 C47.57766327 23.12445023 47.40483826 23.96691803 47.22677612 24.83491516 C46.86230596 26.60296335 46.49401419 28.37022769 46.12207031 30.13671875 C45.55499318 32.83363208 45.0014461 35.53306593 44.44970703 38.2331543 C44.09242791 39.95792829 43.73438139 41.68254354 43.37548828 43.40698242 C43.12848679 44.61024422 43.12848679 44.61024422 42.87649536 45.83781433 C40.65139171 56.33111972 40.65139171 56.33111972 36.43017578 59.14526367 C29.61098759 59.79471017 29.61098759 59.79471017 25.93017578 57.77026367 C21.8615046 50.65008911 24.96742135 40.74636259 26.43017578 33.14526367 C25.50720703 33.8490918 24.58423828 34.55291992 23.63330078 35.27807617 C-7.18583645 58.65741907 -39.70589651 79.54777973 -73.86914062 97.70678711 C-76.55079544 99.13512829 -79.22246592 100.58099232 -81.89404297 102.02807617 C-107.8951939 115.98555568 -135.03661094 127.58452541 -162.56982422 138.14526367 C-163.67148926 138.5701709 -164.7731543 138.99507812 -165.90820312 139.43286133 C-168.95670585 140.60194058 -172.01102892 141.75342033 -175.06982422 142.89526367 C-176.39566528 143.39884399 -176.39566528 143.39884399 -177.74829102 143.91259766 C-182.14630931 145.51814084 -185.81521782 146.68392754 -190.56982422 146.14526367 C-193.44482422 144.70776367 -193.44482422 144.70776367 -195.56982422 142.14526367 C-196.28235036 139.01359635 -196.49426206 136.23397365 -195.56982422 133.14526367 C-192.18313845 130.03991582 -189.07578014 128.3541335 -184.74951172 126.87573242 C-183.59249756 126.46991943 -182.4354834 126.06410645 -181.2434082 125.64599609 C-180.62666229 125.43333099 -180.00991638 125.22066589 -179.3744812 125.0015564 C-150.91593416 115.13821312 -123.47600345 102.62974906 -96.56982422 89.14526367 C-95.50119141 88.61223633 -94.43255859 88.07920898 -93.33154297 87.5300293 C-76.61657185 79.15193341 -60.52050802 69.87983456 -44.56982422 60.14526367 C-43.69100586 59.61046387 -42.8121875 59.07566406 -41.90673828 58.5246582 C-21.71109092 46.17662312 -2.5174143 32.31319083 16.43017578 18.14526367 C15.78467773 18.13591797 15.13917969 18.12657227 14.47412109 18.11694336 C11.54203634 18.06317266 8.6115357 17.97954027 5.68017578 17.89526367 C4.66439453 17.88108398 3.64861328 17.8669043 2.60205078 17.85229492 C-4.90675157 17.60529484 -4.90675157 17.60529484 -8.21044922 15.31323242 C-10.18036874 12.17155043 -10.56982422 9.84372155 -10.56982422 6.14526367 C-7.552274 1.3588047 -5.50748169 0.02510546 0 0 Z " fill="#000000" transform="translate(224.56982421875,173.854736328125)"/>
<path d="M0 0 C1.81230606 -0.01925285 1.81230606 -0.01925285 3.66122437 -0.03889465 C4.97265411 -0.04628159 6.28408386 -0.05366852 7.63525391 -0.0612793 C8.30141346 -0.06535482 8.96757301 -0.06943035 9.65391922 -0.07362938 C13.17926982 -0.09448569 16.70458153 -0.10878972 20.22998047 -0.11816406 C23.8708218 -0.12923292 27.51105267 -0.16363835 31.15167809 -0.20333576 C33.9518243 -0.22948126 36.75182452 -0.23785394 39.55208206 -0.24144554 C41.54631496 -0.24868334 43.54044815 -0.27513011 45.53451538 -0.30183411 C46.74902374 -0.29890854 47.9635321 -0.29598297 49.21484375 -0.29296875 C50.81795914 -0.30176811 50.81795914 -0.30176811 52.45346069 -0.31074524 C55.91966878 0.29666303 57.06154646 1.47343642 59.23681641 4.17700195 C60.39978382 6.50293678 60.36738867 7.85565985 60.3772583 10.44599915 C60.38296844 11.34183716 60.38867859 12.23767517 60.39456177 13.16065979 C60.39623856 14.63888466 60.39623856 14.63888466 60.39794922 16.14697266 C60.40539658 17.70081161 60.40539658 17.70081161 60.41299438 19.28604126 C60.42764127 22.72496191 60.43442237 26.16383644 60.43994141 29.6027832 C60.44569096 31.98691306 60.45144872 34.37104291 60.45721436 36.75517273 C60.46773167 41.75963558 60.47356949 46.76408233 60.47705078 51.76855469 C60.48253572 58.18471823 60.50656088 64.60066957 60.53502274 71.01676655 C60.55363658 75.94352339 60.55885406 80.87022901 60.56038666 85.79701805 C60.56341675 88.16252998 60.57145723 90.52804093 60.58457184 92.89351845 C60.60160509 96.20212615 60.59975846 99.51021403 60.59326172 102.81884766 C60.6024765 103.79825821 60.61169128 104.77766876 60.6211853 105.78675842 C60.59090879 110.70294091 60.53721168 114.23331303 57.23681641 118.17700195 C54.56476132 119.5130295 52.48165988 119.3337119 49.48950195 119.36987305 C48.2845256 119.38593597 47.07954926 119.4019989 45.83805847 119.41854858 C40.32490179 119.46289676 34.81187658 119.50450283 29.29858398 119.52709961 C26.38745684 119.54043624 23.47703113 119.56828229 20.56616211 119.60913086 C17.04948258 119.65848007 13.533439 119.68322308 10.01642799 119.69032669 C8.02827472 119.70029041 6.04029099 119.73452906 4.05241394 119.76913452 C2.23076469 119.76485947 2.23076469 119.76485947 0.37231445 119.76049805 C-0.69420853 119.7685849 -1.76073151 119.77667175 -2.85957336 119.78500366 C-7.00780987 118.91638333 -8.35057573 117.66291445 -10.76318359 114.17700195 C-11.47642229 110.70516064 -11.42605127 107.30874526 -11.37841797 103.7746582 C-11.38396698 102.72857391 -11.38951599 101.68248962 -11.39523315 100.60470581 C-11.40703737 97.14917093 -11.38274479 93.69494501 -11.35693359 90.23950195 C-11.35522265 87.83724019 -11.355288 85.43497656 -11.35705566 83.03271484 C-11.35540197 77.99892304 -11.33669385 72.96557633 -11.30517578 67.93188477 C-11.26549859 61.47874584 -11.26113035 55.02619003 -11.26863861 48.57295227 C-11.27170782 43.61269792 -11.25958942 38.65257471 -11.24250793 33.69235229 C-11.23547548 31.3129051 -11.2323537 28.93344303 -11.23320007 26.5539856 C-11.23140285 23.22883224 -11.21002635 19.90437819 -11.18310547 16.5793457 C-11.18603607 15.59529755 -11.18896667 14.61124939 -11.19198608 13.59738159 C-11.13055169 8.68050409 -11.06005355 5.12055885 -7.76318359 1.17700195 C-5.08491869 -0.1621305 -2.9990311 0.02766529 0 0 Z M6.23681641 17.17700195 C6.23681641 45.22700195 6.23681641 73.27700195 6.23681641 102.17700195 C18.44681641 102.17700195 30.65681641 102.17700195 43.23681641 102.17700195 C43.23681641 74.12700195 43.23681641 46.07700195 43.23681641 17.17700195 C31.02681641 17.17700195 18.81681641 17.17700195 6.23681641 17.17700195 Z " fill="#000000" transform="translate(44.76318359375,353.822998046875)"/>
<path d="M0 0 C5.82090505 2.61391585 9.34340873 6.34337448 12.0078125 12.1796875 C13.56175655 19.24306955 12.97019034 24.90785631 9.6953125 31.3046875 C7.81918637 33.71022059 5.68989457 35.74501379 3.4453125 37.8046875 C-0.04640859 41.09922905 -3.43305807 44.38641284 -6.55810547 48.03613281 C-12.09883853 54.41086049 -18.06516121 60.36541331 -24.01025391 66.36035156 C-25.45836334 67.82508346 -26.90107751 69.29516881 -28.33837891 70.77050781 C-30.43735617 72.92450728 -32.55255105 75.06135091 -34.671875 77.1953125 C-35.30342499 77.84953186 -35.93497498 78.50375122 -36.58566284 79.17779541 C-41.80796088 84.37598595 -47.79651603 88.39391247 -55.3671875 88.7421875 C-64.1698066 87.76411871 -68.96054813 84.40066296 -74.98046875 78.2578125 C-75.67230759 77.56838562 -76.36414642 76.87895874 -77.07695007 76.16864014 C-78.52913693 74.71547843 -79.97516786 73.25614137 -81.4152832 71.79101562 C-83.61242083 69.55952869 -85.8325988 67.35307576 -88.05664062 65.1484375 C-89.47018793 63.727992 -90.88234572 62.3061621 -92.29296875 60.8828125 C-93.28203972 59.90118134 -93.28203972 59.90118134 -94.29109192 58.89971924 C-99.46617256 53.59129629 -102.71342384 48.54474274 -102.8046875 40.8671875 C-102.58435057 33.56602293 -99.45440454 29.6043848 -94.6171875 24.4296875 C-89.19772659 20.9530522 -83.4294245 19.57413998 -77.0546875 20.9296875 C-70.60750367 23.2936549 -66.11164762 27.20733205 -61.4296875 32.0546875 C-60.93210937 32.56128906 -60.43453125 33.06789063 -59.921875 33.58984375 C-58.71145548 34.82354057 -57.50738897 36.06346534 -56.3046875 37.3046875 C-51.53454107 33.34165211 -47.09103216 29.18664774 -42.77734375 24.734375 C-41.56099659 23.49565199 -40.34418562 22.25738428 -39.12695312 21.01953125 C-37.24201421 19.09750754 -35.36036102 17.17264567 -33.48657227 15.23974609 C-31.6552702 13.35361749 -29.81122016 11.48073441 -27.96484375 9.609375 C-27.41562759 9.03637665 -26.86641144 8.4633783 -26.30055237 7.87301636 C-18.93246258 0.45652906 -10.40244589 -3.13836503 0 0 Z M-11.32876587 17.73422241 C-12.04221161 18.46178741 -12.75565735 19.18935242 -13.49072266 19.93896484 C-14.30481598 20.75666351 -15.1189093 21.57436218 -15.95767212 22.4168396 C-16.82757782 23.31568878 -17.69748352 24.21453796 -18.59375 25.140625 C-19.96802982 26.52933513 -21.34231134 27.91804358 -22.71669579 29.30665016 C-24.64180972 31.25816511 -26.55509379 33.22109491 -28.46881104 35.18377686 C-31.82031591 38.61565623 -35.19172127 42.02800536 -38.56088257 45.4425354 C-40.35445995 47.26263183 -42.14413036 49.08658777 -43.92959595 50.91464233 C-44.73738495 51.73864532 -45.54517395 52.56264832 -46.37744141 53.41162109 C-47.44522324 54.50535538 -47.44522324 54.50535538 -48.53457642 55.6211853 C-50.71494694 57.69487356 -51.96515708 58.24001504 -54.9296875 58.8046875 C-61.34570148 57.85416691 -65.20223364 52.46320392 -69.53125 47.9453125 C-70.10157959 47.35709717 -70.67190918 46.76888184 -71.25952148 46.1628418 C-72.40213167 44.97869386 -73.53227217 43.78236774 -74.64868164 42.57348633 C-77.82347044 39.15836745 -77.82347044 39.15836745 -82.19921875 37.92578125 C-82.89402344 38.05082031 -83.58882813 38.17585938 -84.3046875 38.3046875 C-85.3219356 40.47742131 -85.3219356 40.47742131 -85.3046875 43.3046875 C-83.4883424 45.6961668 -81.77896542 47.600998 -79.63671875 49.6640625 C-79.04549728 50.2539093 -78.45427582 50.8437561 -77.84513855 51.45147705 C-76.59188652 52.69566704 -75.33135219 53.93255803 -74.06420898 55.16259766 C-72.12620476 57.04592464 -70.21320557 58.95207137 -68.30273438 60.86328125 C-67.08213372 62.06913172 -65.86017204 63.2736064 -64.63671875 64.4765625 C-64.0636348 65.04630798 -63.49055084 65.61605347 -62.90010071 66.20306396 C-59.18325951 69.99744821 -59.18325951 69.99744821 -54.3046875 71.3046875 C-51.76136966 69.52961487 -51.76136966 69.52961487 -49.24487305 66.8918457 C-48.75500412 66.41073837 -48.26513519 65.92963104 -47.76042175 65.4339447 C-46.14125846 63.83682573 -44.54111297 62.22205877 -42.94140625 60.60546875 C-41.8244465 59.49187567 -40.7067453 58.37902584 -39.58833313 57.26689148 C-37.24589157 54.9318281 -34.91274923 52.58794251 -32.58569336 50.23754883 C-29.59844967 47.22181741 -26.58932149 44.22908806 -23.57287884 41.24259663 C-21.260465 38.94822989 -18.96006791 36.64211242 -16.66315651 34.33223534 C-15.55800472 33.2237424 -14.44911088 32.11896754 -13.33649254 31.01796913 C-11.78442815 29.47857043 -10.24924547 27.92411269 -8.7175293 26.36450195 C-7.83912888 25.48212357 -6.96072845 24.59974518 -6.05570984 23.69062805 C-4.02769532 21.48297124 -4.02769532 21.48297124 -4.52888489 18.9884491 C-5.15106028 17.13868766 -5.15106028 17.13868766 -7.0430603 16.57754517 C-9.40459016 16.03619011 -9.40459016 16.03619011 -11.32876587 17.73422241 Z " fill="#000000" transform="translate(439.3046875,371.6953125)"/>
</svg>
